<?xml version="1.0" standalone="no"?>
<!DOCTYPE svg PUBLIC "-//W3C//DTD SVG 1.1//EN" "http://www.w3.org/Graphics/SVG/1.1/DTD/svg11.dtd" >
<svg xmlns="http://www.w3.org/2000/svg" xmlns:xlink="http://www.w3.org/1999/xlink" version="1.1">
<metadata></metadata>
<defs>
<font id="abordageregular" horiz-adv-x="1204" >
<font-face units-per-em="2048" ascent="1638" descent="-410" />
<missing-glyph horiz-adv-x="614" />
<glyph unicode="&#xfb03;" horiz-adv-x="1929" d="M123 -2v1018q0 254 124.5 394t354.5 140q207 0 334 -137q55 110 168 173t256 63q190 0 318 -107.5t128 -290.5h-176q0 114 -75.5 181t-194.5 67q-155 0 -232 -101t-77 -284v-90h350v-147h-350v-879h-177v879h-575v-879h-176zM299 1024h575v225q-36 62 -102.5 107 t-163.5 45q-154 0 -230.5 -99t-78.5 -278zM1630 0v1024h176v-1024h-176z" />
<glyph unicode="&#xfb04;" horiz-adv-x="1939" d="M123 -2v1018q0 254 124.5 394t354.5 140q207 0 334 -137q55 110 168 173t256 63q94 0 171.5 -23.5t137.5 -71.5t93.5 -128.5t33.5 -186.5v-1239h-176v1219q0 138 -75.5 209t-184.5 71q-155 0 -232 -101t-77 -284v-90h342v-147h-342v-879h-177v879h-575v-879h-176z M299 1024h575v225q-36 62 -102.5 107t-163.5 45q-154 0 -230.5 -99t-78.5 -278z" />
<glyph horiz-adv-x="0" />
<glyph horiz-adv-x="682" />
<glyph unicode="&#xd;" horiz-adv-x="1228" />
<glyph unicode=" "  horiz-adv-x="614" />
<glyph unicode="&#x09;" horiz-adv-x="614" />
<glyph unicode="&#xa0;" horiz-adv-x="614" />
<glyph unicode="!" horiz-adv-x="645" d="M174 133q0 61 43 104.5t105 43.5t105.5 -43.5t43.5 -104.5t-43.5 -105t-105.5 -44q-61 0 -104.5 43.5t-43.5 105.5zM236 487v1151h176v-1151h-176z" />
<glyph unicode="&#x22;" horiz-adv-x="835" d="M133 1638h176l-30 -387h-115zM526 1638h176l-30 -387h-115z" />
<glyph unicode="#" horiz-adv-x="1388" d="M102 383v149h236l80 302h-201v149h240l112 422l150 -41l-101 -381h304l112 422l150 -41l-101 -381h203v-149h-244l-79 -302h221v-149h-260l-119 -444l-150 41l107 403h-303l-119 -444l-150 41l107 403h-195zM498 532h305l80 302h-305z" />
<glyph unicode="$" horiz-adv-x="1159" d="M20 319l156 111q118 -209 305 -262v530l-43 11q-165 41 -252.5 136t-87.5 232q0 142 102.5 244.5t280.5 120.5v196h176v-200q231 -40 367 -246l-137 -119q-89 148 -230 191v-422l54 -13q397 -94 397 -409q0 -77 -25 -144.5t-68 -116.5t-101 -85.5t-123 -57.5t-134 -28 v-195h-176v199q-151 24 -267.5 109t-193.5 218zM291 1085q0 -140 190 -200v387q-91 -16 -140.5 -69.5t-49.5 -117.5zM657 156q67 10 123 39t95.5 86t39.5 131q0 176 -215 231l-43 10v-497z" />
<glyph unicode="%" horiz-adv-x="1769" d="M51 1102q0 156 98.5 252t256.5 96q155 0 253.5 -97t98.5 -251t-98.5 -250t-253.5 -96q-156 0 -255.5 96t-99.5 250zM227 1102q0 -77 48 -137t131 -60q81 0 127.5 60.5t46.5 136.5q0 77 -46.5 139t-127.5 62q-82 0 -130.5 -62t-48.5 -139zM426 41l743 1427l154 -67 l-748 -1436zM1012 334q0 156 98.5 252t255.5 96q155 0 253.5 -97t98.5 -251t-98.5 -250t-253.5 -96q-156 0 -255 96t-99 250zM1188 334q0 -77 48 -137t130 -60q81 0 127.5 60.5t46.5 136.5q0 77 -46.5 139t-127.5 62q-82 0 -130 -61.5t-48 -139.5z" />
<glyph unicode="&#x26;" horiz-adv-x="1636" d="M102 403q0 76 28 143t77.5 118t108.5 89t130 66q-60 63 -98.5 141.5t-38.5 147.5q0 146 111 243t270 97q153 0 265 -95t112 -229q0 -238 -317 -344l292 -264l5 8l176 312h372v-148h-272l-162 -280l342 -310l-119 -133l-323 293q-214 -270 -512 -270q-198 0 -322.5 116 t-124.5 299zM279 412q0 -118 81 -197.5t211 -79.5q116 0 205.5 58.5t169.5 168.5l-389 355q-149 -51 -213.5 -128t-64.5 -177zM485 1108q0 -31 11.5 -60t37 -60.5t45.5 -51.5t58 -55l4 -4q124 48 187 105t63 142q0 69 -55.5 122.5t-145.5 53.5t-147.5 -54.5t-57.5 -137.5z " />
<glyph unicode="'" horiz-adv-x="442" d="M133 1638h176l-30 -387h-115z" />
<glyph unicode="(" horiz-adv-x="655" d="M72 614q0 137 29.5 273t75.5 246.5t108 214t122 178t123 135.5l125 -111q-82 -79 -149.5 -170t-128 -207.5t-95 -260.5t-34.5 -298q0 -147 34.5 -287.5t94.5 -255.5t128.5 -207.5t149.5 -170.5l-125 -117q-76 66 -153.5 171t-147 239t-113.5 300t-44 328z" />
<glyph unicode=")" horiz-adv-x="634" d="M51 -322q82 79 150 170t128.5 207.5t95 260.5t34.5 298q0 147 -34.5 287.5t-95 256t-129 208t-149.5 170.5l125 117q76 -66 153.5 -171t147.5 -239.5t114 -300.5t44 -328q0 -137 -29.5 -273t-75.5 -246.5t-108.5 -213.5t-122.5 -177.5t-123 -135.5z" />
<glyph unicode="*" horiz-adv-x="1181" d="M72 1200l39 121l407 -125v442h139v-444l412 127l41 -121l-408 -141l254 -348l-106 -84l-262 360l-256 -360l-109 84l256 348z" />
<glyph unicode="+" horiz-adv-x="1105" d="M133 741v156h342v346h156v-346h342v-156h-342v-346h-156v346h-342z" />
<glyph unicode="," horiz-adv-x="462" d="M-72 -211l88 41q123 57 172.5 137t49.5 191v47h153v-47q0 -175 -79.5 -288.5t-254.5 -186.5l-77 -33z" />
<glyph unicode="-" horiz-adv-x="976" d="M133 481v166h711v-166h-711z" />
<glyph unicode="." horiz-adv-x="522" d="M113 131q0 62 43 106t104 44q62 0 106 -44.5t44 -105.5t-44 -104t-106 -43t-104.5 43t-42.5 104z" />
<glyph unicode="/" horiz-adv-x="1038" d="M41 76l815 1562l141 -71l-817 -1567z" />
<glyph unicode="0" horiz-adv-x="1320" d="M72 717q0 110 20 213t66 198t113 165.5t168 112.5t225 42t224.5 -42.5t166.5 -112.5t110.5 -166t64 -198t19.5 -212t-19 -212t-63 -198t-110 -166t-167 -112.5t-226 -42.5q-105 0 -193 29t-152 80.5t-112 120t-77 151.5t-43.5 170t-14.5 180zM264 717q0 -74 10.5 -145.5 t38.5 -149t71 -135.5t114.5 -95.5t163.5 -37.5q91 0 162.5 38t114 96t70.5 136t38 149.5t10 143.5t-10 143.5t-38 149.5t-70.5 136t-114 96t-162.5 38q-92 0 -164.5 -37.5t-115 -95.5t-70.5 -135.5t-38 -149t-10 -145.5z" />
<glyph unicode="1" horiz-adv-x="1044" d="M72 1018l450 432l135 -53v-1229h316v-168h-854v168h346v985l-277 -270z" />
<glyph unicode="2" horiz-adv-x="1140" d="M51 1073q25 86 68 152.5t93.5 108t113 68t122.5 36.5t125 10q207 0 329 -112.5t122 -293.5q0 -137 -57.5 -237.5t-198.5 -220.5l-485 -416h807v-168h-965l-53 197l555 489q111 98 157.5 173t46.5 165q0 113 -74.5 184.5t-187.5 71.5q-134 0 -224.5 -69t-127.5 -199z" />
<glyph unicode="3" horiz-adv-x="1243" d="M90 274l150 119q122 -239 378 -239q140 0 216.5 64.5t76.5 172.5q0 258 -522 258v168q54 0 96 1.5t96 7t94 15.5t81.5 28t68 42.5t43.5 61t17 82.5q0 99 -75.5 160t-188.5 61q-208 0 -349 -211l-153 119q169 260 506 260q117 0 218 -39.5t167.5 -124t66.5 -199.5 q0 -131 -67.5 -226.5t-196.5 -113.5q140 -29 215.5 -115t75.5 -218q0 -181 -138 -301.5t-362 -120.5q-182 0 -304 71.5t-210 216.5z" />
<glyph unicode="4" horiz-adv-x="1273" d="M0 518l670 918h284v-887h248v-164h-248v-385h-186v385h-711zM240 549h528v721z" />
<glyph unicode="5" horiz-adv-x="1155" d="M51 254l150 117q55 -96 148 -156.5t212 -60.5q157 0 246.5 81.5t89.5 217.5q0 143 -86.5 221t-228.5 78q-182 0 -324 -148l-158 64l78 766h774v-168h-633l-49 -471q142 125 338 125q222 0 348.5 -127t126.5 -330q0 -212 -147 -344.5t-377 -132.5q-320 0 -508 268z" />
<glyph unicode="6" horiz-adv-x="1157" d="M72 567v133q0 134 20 246t63.5 206t109.5 159t161.5 101t216.5 36q342 0 477 -297l-162 -109q-60 117 -138.5 177.5t-190.5 60.5q-190 0 -277.5 -134t-87.5 -403q59 68 158 109t203 41q213 0 347 -123.5t134 -327.5q0 -112 -42.5 -200.5t-116 -143.5t-167.5 -83.5 t-202 -28.5q-243 0 -374.5 157t-131.5 424zM274 434q0 -124 90.5 -202t229.5 -78t229 77t90 215q0 125 -82.5 202t-212.5 77q-154 0 -249 -75.5t-95 -215.5z" />
<glyph unicode="7" horiz-adv-x="1001" d="M41 1264v168h893l47 -107l-201 -506h199v-168h-264l-271 -680l-168 80l246 600h-368v168h436l182 445h-731z" />
<glyph unicode="8" horiz-adv-x="1290" d="M113 395q0 104 61 201.5t176 153.5q-186 125 -186 305q0 166 136.5 280.5t344.5 114.5q209 0 345 -113.5t136 -279.5q0 -170 -186 -307q115 -56 176.5 -154.5t61.5 -202.5q0 -177 -152.5 -293t-378.5 -116q-234 0 -384 110t-150 301zM303 403q0 -113 95 -182t247 -69 t246 69t94 182q0 112 -92.5 183t-245.5 71q-155 0 -249.5 -71t-94.5 -183zM358 1051q0 -106 80 -166t207 -60t208 60t81 164q0 107 -83 170t-208 63q-124 0 -204.5 -62t-80.5 -169z" />
<glyph unicode="9" horiz-adv-x="1157" d="M37 283l162 108q60 -117 138.5 -177t190.5 -60q190 0 277.5 133.5t87.5 402.5q-58 -67 -157.5 -108t-203.5 -41q-213 0 -347 123t-134 327q0 112 42.5 200.5t116 143.5t168 84t202.5 29q242 0 373.5 -157.5t131.5 -424.5v-133q0 -169 -32 -302.5t-99 -234.5 t-178.5 -155.5t-261.5 -54.5q-342 0 -477 297zM244 987q0 -125 82.5 -201.5t212.5 -76.5q154 0 249 75t95 215q0 124 -90.5 202.5t-229.5 78.5t-229 -77.5t-90 -215.5z" />
<glyph unicode=":" horiz-adv-x="645" d="M174 131q0 62 43.5 106t104.5 44t105 -44t44 -106q0 -61 -43.5 -104t-105.5 -43t-105 43t-43 104zM174 891q0 62 43.5 105.5t104.5 43.5q62 0 105.5 -44t43.5 -105t-43.5 -104.5t-105.5 -43.5t-105 43.5t-43 104.5z" />
<glyph unicode=";" horiz-adv-x="628" d="M-72 -211l88 41q123 57 172.5 137t49.5 191v47h153v-47q0 -175 -79.5 -288.5t-254.5 -186.5l-77 -33zM158 891q0 62 43 105.5t104 43.5q62 0 106 -44t44 -105t-44 -104.5t-106 -43.5q-61 0 -104 43t-43 105z" />
<glyph unicode="&#x3c;" horiz-adv-x="1259" d="M133 629v186l936 543l78 -139l-850 -496l850 -498l-70 -145z" />
<glyph unicode="=" horiz-adv-x="1064" d="M133 455v157h799v-157h-799zM133 862v158h799v-158h-799z" />
<glyph unicode="&#x3e;" horiz-adv-x="1259" d="M133 219l850 496l-850 497l70 146l944 -549v-186l-936 -543z" />
<glyph unicode="?" horiz-adv-x="1251" d="M133 1282q50 179 183 275t333 96q129 0 234 -48.5t170 -146t65 -227.5q0 -99 -33.5 -178.5t-93.5 -132.5t-137 -85.5t-170 -46.5l-14 -2v-325h-176v442q95 5 173 25.5t141 58.5t98.5 99.5t35.5 142.5q0 126 -85.5 201t-201.5 75q-262 0 -346 -286zM432 131q0 62 43.5 106 t104.5 44t105 -44t44 -106q0 -61 -43.5 -104t-105.5 -43t-105 43t-43 104z" />
<glyph unicode="@" horiz-adv-x="1849" d="M72 438q0 179 59.5 336t167.5 272.5t269 182.5t354 67q189 0 350.5 -64t271.5 -173.5t172 -257.5t62 -314q0 -43 -5 -87.5t-17.5 -96.5t-31.5 -98.5t-50 -90t-70 -75.5t-94.5 -51t-120.5 -19q-107 0 -189 57t-117 154q-27 -45 -89 -78.5t-134 -33.5q-161 0 -249.5 107.5 t-88.5 270.5q0 79 22 149.5t64 126.5t110 89t154 33q64 0 106 -19.5t87 -62.5v67h176v-458q0 -37 4 -69.5t15.5 -68t30 -60.5t50 -41.5t72.5 -16.5q56 0 96.5 39t59.5 101t27 119.5t8 114.5q0 135 -45.5 254t-130 210t-215 143.5t-291.5 52.5q-165 0 -295.5 -55t-212 -150.5 t-124 -219t-42.5 -265.5q0 -195 75 -350.5t216 -245.5t325 -90q86 0 155.5 22t143.5 66l72 -131q-96 -55 -184.5 -80t-196.5 -25q-233 0 -412 106t-274.5 290t-95.5 417zM698 451q0 -31 6.5 -62t22 -62t38 -54.5t58 -38.5t78.5 -15q73 0 118.5 50.5t45.5 125.5v140 q0 67 -47.5 113t-110.5 46q-55 0 -97.5 -23.5t-66 -61.5t-34.5 -78t-11 -80z" />
<glyph unicode="A" horiz-adv-x="1112" d="M-45 49l487 1405h228l493 -1393l-182 -61l-162 455h-536l-158 -455zM340 623h420l-211 598z" />
<glyph unicode="B" horiz-adv-x="1173" d="M133 0v1434h404q96 0 177 -19t150 -59.5t108.5 -115t39.5 -175.5q0 -111 -53.5 -189t-147.5 -118q136 -20 213.5 -110.5t77.5 -235.5q0 -109 -40.5 -189.5t-116 -128.5t-173.5 -71t-221 -23h-418zM324 164h266q73 0 129 11.5t101.5 38.5t70 75.5t24.5 116.5 q0 137 -83.5 195t-249.5 58h-258v-495zM324 821h233q124 0 196 57.5t72 180.5q0 211 -293 211h-208v-449z" />
<glyph unicode="C" horiz-adv-x="1185" d="M72 721q0 199 73 364t213 265t320 100q189 0 310.5 -83.5t197.5 -258.5l-166 -82q-107 256 -350 256q-93 0 -171.5 -47.5t-128.5 -125t-78 -171t-28 -188.5v-56q0 -96 29 -190.5t81 -173t135.5 -127.5t182.5 -49q105 0 191 68.5t137 191.5l166 -86q-184 -342 -508 -342 q-151 0 -269 58.5t-190.5 160.5t-109.5 233t-37 283z" />
<glyph unicode="D" horiz-adv-x="1296" d="M133 0v1434h367q725 0 725 -719q0 -715 -725 -715h-367zM326 168h174q278 0 405 138t127 409t-127 411t-405 140h-174v-1098z" />
<glyph unicode="E" horiz-adv-x="1064" d="M133 0v1434h860v-166h-669v-449h516v-162h-516v-493h669v-164h-860z" />
<glyph unicode="F" horiz-adv-x="942" d="M133 0v1434h860v-166h-669v-449h516v-162h-516v-657h-191z" />
<glyph unicode="G" horiz-adv-x="1282" d="M72 721q0 199 73 364t213 265t320 100q189 0 310.5 -83.5t197.5 -258.5l-166 -82q-107 256 -350 256q-93 0 -171.5 -47.5t-128.5 -125t-78 -171t-28 -188.5v-56q0 -76 17 -152t53 -146t85.5 -124t119 -86t149.5 -32q63 0 120 19.5t105 59t76.5 108t28.5 157.5v100h-377 v168h569v-252q0 -116 -44.5 -216t-118.5 -167.5t-171 -106t-202 -38.5q-151 0 -268.5 58.5t-189 161t-108 233t-36.5 282.5z" />
<glyph unicode="H" horiz-adv-x="1384" d="M133 0v1434h193v-609h733v609h192v-1434h-192v657h-733v-657h-193z" />
<glyph unicode="I" horiz-adv-x="790" d="M72 1270v164h647v-164h-225v-1106h225v-164h-645v164h227v1106h-229z" />
<glyph unicode="J" horiz-adv-x="1110" d="M61 434l185 37q6 -139 76.5 -228t199.5 -89q128 0 195 77t67 232v971h193v-971q0 -128 -38.5 -223.5t-104.5 -149t-144 -79t-168 -25.5q-207 0 -328 115t-133 333z" />
<glyph unicode="K" horiz-adv-x="1255" d="M137 0v1434h193v-799l671 819l146 -113l-434 -524l536 -721l-153 -112l-510 678l-256 -312v-350h-193z" />
<glyph unicode="L" horiz-adv-x="1001" d="M133 0v1434h193v-1266h675v-168h-868z" />
<glyph unicode="M" horiz-adv-x="1714" d="M133 0v1395l184 39l570 -902l520 902l174 -39v-1395h-192v1044l-467 -806h-82l-514 813v-1051h-193z" />
<glyph unicode="N" horiz-adv-x="1417" d="M133 0v1419l166 41l793 -1112v1086h192v-1420l-162 -41l-796 1112v-1085h-193z" />
<glyph unicode="O" horiz-adv-x="1484" d="M72 717q0 149 46 281.5t130 232.5t212.5 158.5t284.5 58.5t284 -58.5t211 -159t128 -232.5t45 -281t-45 -281t-128 -232.5t-211 -159t-284 -58.5t-284.5 58.5t-212.5 158.5t-130 232.5t-46 281.5zM264 717q0 -101 31 -199.5t89 -180.5t151.5 -132.5t207.5 -50.5 q92 0 171 33.5t134.5 89.5t95 129t58.5 152t19 159t-19 159t-58.5 152t-95 129t-134.5 89.5t-171 33.5q-93 0 -173 -33t-135 -88.5t-94.5 -128.5t-58 -152.5t-18.5 -160.5z" />
<glyph unicode="P" horiz-adv-x="1200" d="M133 0v1434h481q118 0 213.5 -25.5t168.5 -77.5t113 -139t40 -203q0 -117 -40 -204t-113 -139t-168.5 -77.5t-213.5 -25.5h-288v-543h-193zM326 711h288q167 0 254.5 63.5t87.5 214.5t-87.5 214t-254.5 63h-288v-555z" />
<glyph unicode="Q" horiz-adv-x="1521" d="M72 717q0 149 46 281.5t130 232.5t212.5 158.5t284.5 58.5t284 -58.5t211 -159t128 -232.5t45 -281q0 -169 -54.5 -313t-164 -249t-260.5 -145q102 -119 291 -119h225v-167h-225q-173 0 -303 65t-197 197q-151 4 -276 63.5t-206.5 159t-126 230.5t-44.5 278zM264 717 q0 -93 26.5 -183.5t75.5 -169t128 -133.5t176 -71q-13 73 -13 145v105h193v-142q0 -48 10 -100q115 30 199 119.5t123 200.5t39 229q0 80 -19 159t-58.5 152t-95 129t-134.5 89.5t-171 33.5q-93 0 -173 -33t-135 -88.5t-94.5 -128.5t-58 -152.5t-18.5 -160.5z" />
<glyph unicode="R" horiz-adv-x="1275" d="M133 0v1434h481q118 0 213.5 -25.5t168.5 -77.5t113 -139t40 -203q0 -174 -84.5 -278t-237.5 -144l301 -487l-155 -100l-338 563h-21h-288v-543h-193zM326 711h288q167 0 254.5 63.5t87.5 214.5t-87.5 214t-254.5 63h-288v-555z" />
<glyph unicode="S" horiz-adv-x="1159" d="M20 319l156 111q157 -278 428 -278q53 0 106.5 16t100 46.5t75.5 82t29 115.5q0 176 -215 231l-262 66q-165 41 -252.5 136t-87.5 232q0 158 123 263.5t332 105.5q306 0 471 -254l-137 -119q-123 205 -338 205q-121 0 -189.5 -58.5t-68.5 -134.5q0 -83 64.5 -135.5 t172.5 -77.5l183 -43q397 -94 397 -409q0 -105 -45 -190t-119.5 -137.5t-164.5 -80.5t-185 -28q-191 0 -336.5 88t-237.5 247z" />
<glyph unicode="T" horiz-adv-x="913" d="M-72 1266v168h1057v-168h-432v-1266h-193v1266h-432z" />
<glyph unicode="U" horiz-adv-x="1280" d="M113 629v805h192v-805q0 -47 1 -79t7.5 -86t18.5 -91.5t36 -82t57 -72t85.5 -46t118.5 -18.5q67 0 121.5 18.5t90 46.5t61.5 71t39.5 83t21.5 91t10 86.5t2 78.5v805h192v-805q0 -74 -6 -138t-22 -131t-42 -120.5t-68 -102t-97 -81t-132 -51.5t-171 -19 q-98 0 -175.5 19.5t-131 51t-92.5 81.5t-61 101.5t-35 121t-17 130t-4 138.5z" />
<glyph unicode="V" horiz-adv-x="1071" d="M-51 1393l182 61l412 -1216l403 1216l170 -49l-467 -1405h-227z" />
<glyph unicode="W" horiz-adv-x="1632" d="M-51 1399l186 51l285 -1077l319 966h172l306 -974l288 1085l172 -39l-377 -1411h-174l-313 1006l-328 -1006h-166z" />
<glyph unicode="X" horiz-adv-x="1038" d="M43 78l393 672l-354 608l168 96l297 -514l301 514l153 -86l-352 -602l404 -694l-168 -92l-346 595l-349 -595z" />
<glyph unicode="Y" horiz-adv-x="1040" d="M10 1368l172 86l359 -647l329 647l160 -76l-399 -782v-596h-193v596z" />
<glyph unicode="Z" horiz-adv-x="970" d="M0 106l709 1160h-605v168h826l41 -107l-709 -1159h692v-168h-913z" />
<glyph unicode="[" horiz-adv-x="827" d="M143 -281v1919h613v-147h-437v-1626h437v-146h-613z" />
<glyph unicode="\" horiz-adv-x="1038" d="M41 1567l141 71l815 -1562l-139 -76z" />
<glyph unicode="]" horiz-adv-x="827" d="M72 -133h436v1626h-436v145h612v-1919h-612v148z" />
<glyph unicode="^" horiz-adv-x="978" d="M102 1098l387 299l388 -299l-97 -123l-291 225l-290 -225z" />
<glyph unicode="_" horiz-adv-x="1849" d="M133 0v150h1583v-150h-1583z" />
<glyph unicode="`" horiz-adv-x="0" d="M102 1483l101 119l387 -299l-96 -123z" />
<glyph unicode="a" horiz-adv-x="1286" d="M102 287q0 73 27 132t70.5 97.5t102 64.5t118 37t121.5 11q147 0 272 -47v94q0 112 -49.5 164.5t-171.5 52.5q-129 0 -350 -129l-68 141q130 68 231.5 101.5t217.5 33.5q366 0 366 -356v-446q0 -105 80 -105q37 0 65.5 29t59.5 82l113 -90q-117 -168 -256 -168 q-160 0 -215 123q-70 -54 -165.5 -94t-201.5 -40q-70 0 -134.5 19t-117 56t-84 98t-31.5 139zM279 299q0 -85 59 -129.5t158 -44.5q88 0 172.5 36.5t144.5 96.5v172q-159 51 -297 51q-104 0 -170.5 -52t-66.5 -130z" />
<glyph unicode="b" horiz-adv-x="1226" d="M123 203v1435h176v-761q56 73 153 115t203 42q228 0 364 -144t136 -382q0 -227 -146 -374.5t-386 -147.5q-84 0 -157 16t-134 47t-109 67t-100 87zM299 303q129 -170 322 -170q168 0 263 107.5t95 271.5q0 168 -88.5 271.5t-243.5 103.5q-157 0 -252.5 -106t-95.5 -261 v-217z" />
<glyph unicode="c" horiz-adv-x="1097" d="M72 508q0 136 65 256.5t182.5 196t258.5 75.5q199 0 320.5 -86.5t156.5 -257.5l-170 -53q-27 125 -100 187.5t-207 62.5q-103 0 -180 -56.5t-113.5 -141.5t-36.5 -183q0 -91 43 -176.5t122 -142t173 -56.5q119 0 201 64.5t128 160.5l142 -84q-48 -90 -111 -151.5 t-160 -99t-221 -37.5q-143 0 -256.5 69.5t-175 188t-61.5 264.5z" />
<glyph unicode="d" horiz-adv-x="1226" d="M72 508q0 146 69 267t186 190t255 69q224 0 346 -141v745h176v-1638h-176v139q-124 -153 -346 -153q-228 0 -369 148t-141 374zM248 506q0 -163 104 -268t248 -105q160 0 244 110.5t84 276.5q0 159 -86.5 263t-241.5 104q-164 0 -258 -110t-94 -271z" />
<glyph unicode="e" horiz-adv-x="1093" d="M72 510q0 121 39.5 221.5t107 167t157.5 103t191 36.5q215 0 335 -134.5t120 -377.5v-53h-772q10 -150 106 -245t230 -95q106 0 179 44t142 130l109 -98q-91 -110 -191 -166.5t-254 -56.5q-227 0 -363 142.5t-136 381.5zM256 621h592q0 115 -80 192.5t-201 77.5 q-266 0 -311 -270z" />
<glyph unicode="f" horiz-adv-x="727" d="M123 0v1167q0 214 135 348t350 134q167 0 281.5 -88.5t154.5 -245.5l-157 -76q-15 53 -38 97.5t-58 83t-85.5 60t-111.5 21.5q-96 0 -164 -46t-99.5 -120t-31.5 -168v-143h424v-147h-424v-877h-176z" />
<glyph unicode="g" horiz-adv-x="1226" d="M72 508q0 146 69 267t186 190t255 69q224 0 346 -141v131h176v-1049q0 -256 -139 -396t-387 -140q-152 0 -278 78t-187 239l153 70q29 -110 122.5 -175t199.5 -65q168 0 254 98t86 291v164q-124 -153 -346 -153q-228 0 -369 148t-141 374zM248 506q0 -163 104 -268 t248 -105q160 0 244 110.5t84 276.5q0 159 -86.5 263t-241.5 104q-164 0 -258 -110t-94 -271z" />
<glyph unicode="h" d="M123 0v1638h176v-766q79 72 183 118t212 46q205 0 306.5 -108t101.5 -312v-616h-176v551q0 154 -62 235.5t-207 81.5q-92 0 -187 -54t-171 -134v-680h-176z" />
<glyph unicode="i" horiz-adv-x="542" d="M123 1399q0 62 43 105.5t104 43.5q62 0 106 -44t44 -105t-44 -104.5t-106 -43.5q-61 0 -104 43t-43 105zM182 0v1024h176v-1024h-176z" />
<glyph unicode="j" horiz-adv-x="538" d="M-399 -328l141 90q37 -84 91 -129t140 -45q40 0 74 12.5t66 41.5t50.5 86t18.5 137v1159h176v-1149q0 -119 -33 -206t-90.5 -135.5t-126 -70.5t-149.5 -22q-229 0 -358 231zM119 1399q0 62 43 105.5t104 43.5q62 0 106 -44t44 -105t-44 -104.5t-106 -43.5q-61 0 -104 43 t-43 105z" />
<glyph unicode="k" horiz-adv-x="1124" d="M143 0v1638h176v-1138l615 561l108 -127l-362 -330l393 -524l-135 -105l-385 514l-234 -213v-276h-176z" />
<glyph unicode="l" horiz-adv-x="462" d="M143 0v1638h176v-1638h-176z" />
<glyph unicode="m" horiz-adv-x="2007" d="M123 0v1024h176v-152q79 72 183 118t212 46q279 0 367 -200q213 200 436 200q205 0 306.5 -108t101.5 -312v-616h-176v551q0 154 -62 235.5t-207 81.5q-94 0 -189.5 -55t-170.5 -137q2 -18 2 -60v-616h-176v551q0 154 -62 235.5t-207 81.5q-92 0 -187 -54t-171 -134v-680 h-176z" />
<glyph unicode="n" d="M123 0v1024h176v-152q79 72 183 118t212 46q205 0 306.5 -108t101.5 -312v-616h-176v551q0 154 -62 235.5t-207 81.5q-92 0 -187 -54t-171 -134v-680h-176z" />
<glyph unicode="o" d="M72 514q0 232 149 377t379 145q151 0 272 -64t191 -184t70 -274q0 -234 -149.5 -381t-383.5 -147q-235 0 -381.5 146.5t-146.5 381.5zM248 514q0 -156 98.5 -268.5t253.5 -112.5q158 0 257 111.5t99 269.5t-94.5 266.5t-261.5 108.5q-84 0 -152 -31t-111 -83.5 t-66 -119.5t-23 -141z" />
<glyph unicode="p" horiz-adv-x="1226" d="M123 -532v1556h176v-139q124 153 346 153q228 0 369 -148t141 -374q0 -146 -69 -267t-186 -190t-255 -69q-224 0 -346 141v-663h-176zM299 504q0 -159 86.5 -263t241.5 -104q164 0 258 110t94 271q0 163 -104 268t-248 105q-160 0 -244 -110.5t-84 -276.5z" />
<glyph unicode="q" horiz-adv-x="1226" d="M72 512q0 146 69 267t186 190t255 69q224 0 346 -141v127h176v-1556h-176v675q-124 -153 -346 -153q-228 0 -369 148t-141 374zM248 510q0 -163 104 -268t248 -105q160 0 244 110.5t84 276.5q0 159 -86.5 263t-241.5 104q-164 0 -258 -110t-94 -271z" />
<glyph unicode="r" horiz-adv-x="921" d="M123 0v1024h176v-119q120 131 283 131q131 0 209.5 -78t78.5 -196q0 -142 -114 -264l-131 104q69 69 69 152q0 57 -40 95t-103 38q-146 0 -252 -168v-719h-176z" />
<glyph unicode="s" horiz-adv-x="1036" d="M82 219l131 113q57 -91 149 -145t201 -54q90 0 147.5 39.5t57.5 101.5q0 57 -45 89t-133 57l-146 41q-143 39 -221 104t-78 174q0 131 108.5 212t276.5 81q244 0 394 -196l-121 -117q-122 166 -299 166q-86 0 -134 -35.5t-48 -91.5q0 -50 43.5 -84.5t136.5 -61.5l155 -43 q144 -38 215.5 -99.5t71.5 -162.5q0 -156 -108.5 -238.5t-294.5 -82.5q-140 0 -262.5 65.5t-196.5 167.5z" />
<glyph unicode="t" horiz-adv-x="933" d="M0 877v147h233v303h177v-303h393v-147h-393v-572q0 -89 41.5 -135.5t113.5 -46.5q143 0 203 196l135 -75q-97 -269 -350 -269q-320 0 -320 330v572h-233z" />
<glyph unicode="u" d="M102 406v616h177v-551q0 -154 61.5 -235.5t206.5 -81.5q92 0 187 54t171 134v680h176v-1024h-176v152q-79 -72 -183 -118t-212 -46q-205 0 -306.5 108t-101.5 312z" />
<glyph unicode="v" horiz-adv-x="1064" d="M41 985l162 66l354 -834l317 834l150 -66l-377 -985h-188z" />
<glyph unicode="w" horiz-adv-x="1660" d="M41 993l166 60l280 -795l267 766h174l262 -766l278 795l152 -60l-352 -993h-176l-261 756l-262 -756h-176z" />
<glyph unicode="x" horiz-adv-x="1032" d="M51 88l350 432l-333 410l133 114l313 -382l309 382l121 -106l-326 -406l363 -444l-139 -108l-336 413l-334 -413z" />
<glyph unicode="y" horiz-adv-x="1077" d="M-129 -309l141 90q74 -193 211 -193q37 0 65.5 14.5t51.5 48t39.5 68t38.5 93.5l63 163l-428 1010l162 66l356 -838l318 838l147 -66l-485 -1278q-100 -266 -334 -266q-247 0 -346 250z" />
<glyph unicode="z" horiz-adv-x="944" d="M72 123l567 737h-522v164h700l55 -123l-563 -737h559v-164h-753z" />
<glyph unicode="|" horiz-adv-x="462" d="M143 -543v2181h176v-2181h-176z" />
<glyph unicode="~" horiz-adv-x="1228" d="M147 487q55 84 133 145.5t138 61.5q69 0 131 -41l88 -55q29 -19 46 -26t42 -7q68 0 160 123l112 -90q-49 -79 -127 -145t-145 -66q-57 0 -107 33l-92 61q-56 37 -102 37q-35 0 -70 -29.5t-86 -95.5z" />
<glyph unicode="&#xa1;" horiz-adv-x="645" d="M174 1022q0 62 43.5 105.5t104.5 43.5q62 0 105.5 -43.5t43.5 -105.5q0 -61 -43.5 -104.5t-105.5 -43.5t-105 43t-43 105zM236 -483v1151h176v-1151h-176z" />
<glyph unicode="&#xa2;" horiz-adv-x="1097" d="M72 717q0 192 125.5 345t314.5 179v193h176v-197q306 -45 367 -336l-170 -53q-42 194 -197 237v-729q148 46 227 211l142 -84q-127 -236 -369 -278v-205h-176v197q-196 20 -318 166.5t-122 353.5zM248 717q0 -120 75 -227.5t189 -137.5v740q-83 -17 -144 -75 t-90.5 -135.5t-29.5 -164.5z" />
<glyph unicode="&#xa3;" horiz-adv-x="1126" d="M41 631v147h197l-43 109q-58 164 -13.5 290t165 201.5t274.5 75.5q180 0 291.5 -87t152.5 -247l-156 -76q-39 114 -109.5 187.5t-178.5 73.5q-107 0 -182.5 -49.5t-98 -135t19.5 -198.5l58 -144h448v-147h-389q18 -50 19.5 -100.5t-11.5 -96t-33 -86.5t-49.5 -79 t-55.5 -66.5t-56 -55.5h745v-147h-938l-35 125q36 29 65.5 56t61.5 60.5t55.5 64.5t43 67.5t28.5 71t7.5 72.5t-15.5 75l-14 39h-254z" />
<glyph unicode="&#xa5;" horiz-adv-x="1040" d="M10 1368l172 86l359 -647l329 647l160 -76l-399 -782v-4h280v-158h-280v-88h280v-158h-280v-188h-193v188h-284v158h284v88h-284v158h284v4z" />
<glyph unicode="&#xa6;" horiz-adv-x="442" d="M133 236h176v-779h-176v779zM133 860v778h176v-778h-176z" />
<glyph unicode="&#xa7;" horiz-adv-x="1095" d="M82 27l131 112q86 -105 171.5 -149.5t184.5 -44.5q104 0 171 40.5t67 110.5q0 51 -37.5 81.5t-118.5 51.5l-235 60q-105 27 -177.5 91.5t-72.5 166.5q0 83 57.5 153.5t145.5 100.5q-78 24 -133.5 86.5t-55.5 148.5q0 131 108.5 212t276.5 81q135 0 243 -53t175 -143 l-117 -105q-126 154 -307 154q-94 0 -147.5 -36.5t-53.5 -90.5q0 -43 36 -75t93 -46l246 -64q132 -33 201.5 -95t69.5 -171q0 -87 -45.5 -156t-122.5 -108q153 -65 153 -225q0 -155 -120.5 -238.5t-315.5 -83.5q-150 0 -259 55.5t-212 178.5zM344 578q0 -65 69 -106.5 t160 -41.5q96 0 172 41.5t76 106.5q0 39 -37 70t-93 46t-118 15q-91 0 -160 -36t-69 -95z" />
<glyph unicode="&#xa8;" horiz-adv-x="0" d="M182 1407q0 58 41.5 99.5t100.5 41.5q58 0 99.5 -41t41.5 -100t-41.5 -100t-99.5 -41q-59 0 -100.5 41.5t-41.5 99.5zM608 1407q0 58 41.5 99.5t100.5 41.5q58 0 99.5 -41t41.5 -100t-41.5 -100t-99.5 -41q-59 0 -100.5 41.5t-41.5 99.5z" />
<glyph unicode="&#xab;" horiz-adv-x="1349" d="M72 530l483 521l113 -113l-375 -397l383 -461l-129 -105zM612 530l486 521l112 -113l-376 -397l383 -461l-127 -105z" />
<glyph unicode="&#xad;" horiz-adv-x="976" d="M133 481v166h711v-166h-711z" />
<glyph unicode="&#xb0;" horiz-adv-x="919" d="M106 1102q0 156 98.5 252t256.5 96q155 0 253.5 -97t98.5 -251t-98.5 -250t-253.5 -96q-156 0 -255.5 96t-99.5 250zM283 1102q0 -77 48 -137t130 -60q81 0 127.5 60.5t46.5 136.5q0 77 -46.5 139t-127.5 62q-82 0 -130 -61.5t-48 -139.5z" />
<glyph unicode="&#xb4;" horiz-adv-x="0" d="M102 1303l387 299l101 -119l-391 -303z" />
<glyph unicode="&#xb6;" horiz-adv-x="1583" d="M72 973q0 108 43 196.5t117 145.5t171.5 88t208.5 31h899v-150h-266v-1284h-176v1284h-233v-1284h-179v512h-45q-152 0 -272 50.5t-194 156.5t-74 254z" />
<glyph unicode="&#xb7;" horiz-adv-x="522" d="M113 561q0 62 43 106t104 44q62 0 106 -44.5t44 -105.5t-44 -104t-106 -43t-104.5 43t-42.5 104z" />
<glyph unicode="&#xb8;" horiz-adv-x="0" d="M152 -426h108q57 0 94 22t37 68q0 43 -35 61.5t-86 18.5h-92l84 309h123l-55 -205h4q85 0 132.5 -47.5t47.5 -136.5q0 -103 -71 -155t-175 -52h-116v117z" />
<glyph unicode="&#xbb;" horiz-adv-x="1349" d="M133 80l383 461l-377 397l113 113l485 -521l-477 -555zM674 80l383 461l-375 397l113 113l483 -521l-475 -555z" />
<glyph unicode="&#xbf;" horiz-adv-x="1251" d="M133 -76q0 99 33.5 178.5t93.5 132.5t137 85.5t170 46.5l15 2v325h176v-442q-95 -5 -173 -25.5t-141.5 -58.5t-99 -99.5t-35.5 -142.5q0 -126 85.5 -201t201.5 -75q261 0 346 287l176 -64q-50 -179 -183 -275t-333 -96q-129 0 -234 48.5t-170 146t-65 227.5zM522 1024 q0 61 44 104t106 43t104.5 -42.5t42.5 -104.5t-43 -106t-104 -44q-62 0 -106 44t-44 106z" />
<glyph unicode="&#xc0;" horiz-adv-x="1112" d="M-45 49l487 1405h228l493 -1393l-182 -61l-162 455h-536l-158 -455zM340 623h420l-211 598zM350 1892l101 119l387 -299l-97 -123z" />
<glyph unicode="&#xc1;" horiz-adv-x="1112" d="M-45 49l487 1405h228l493 -1393l-182 -61l-162 455h-536l-158 -455zM289 1712l387 299l100 -119l-391 -303zM340 623h420l-211 598z" />
<glyph unicode="&#xc2;" horiz-adv-x="1112" d="M-45 49l487 1405h228l493 -1393l-182 -61l-162 455h-536l-158 -455zM166 1712l387 299l387 -299l-96 -123l-291 226l-291 -226zM340 623h420l-211 598z" />
<glyph unicode="&#xc3;" horiz-adv-x="1112" d="M-45 49l487 1405h228l493 -1393l-182 -61l-162 455h-536l-158 -455zM127 1704q55 84 132.5 145.5t137.5 61.5q69 0 131 -41l88 -55q50 -33 89 -33t77 32t82 91l113 -90q-49 -79 -127 -145t-145 -66q-58 0 -107 32l-92 62q-56 37 -103 37q-35 0 -69.5 -29.5t-85.5 -95.5z M340 623h420l-211 598z" />
<glyph unicode="&#xc4;" horiz-adv-x="1112" d="M-45 49l487 1405h228l493 -1393l-182 -61l-162 455h-536l-158 -455zM203 1817q0 59 41.5 100t99.5 41t99.5 -41t41.5 -100t-41.5 -100.5t-99.5 -41.5t-99.5 41.5t-41.5 100.5zM340 623h420l-211 598zM629 1817q0 59 41.5 100t99.5 41t99.5 -41t41.5 -100t-41.5 -100.5 t-99.5 -41.5t-99.5 41.5t-41.5 100.5z" />
<glyph unicode="&#xc5;" horiz-adv-x="1112" d="M-45 49l487 1405h228l493 -1393l-182 -61l-162 455h-536l-158 -455zM324 1774q0 99 62.5 160t162.5 61q97 0 160 -61.5t63 -159.5q0 -96 -63 -158t-160 -62q-98 0 -161.5 61.5t-63.5 158.5zM340 623h420l-211 598zM449 1776q0 -45 26.5 -78t73.5 -33q44 0 70 34t26 77 q0 42 -26 76t-70 34q-47 0 -73.5 -33.5t-26.5 -76.5z" />
<glyph unicode="&#xc6;" horiz-adv-x="1826" d="M-45 0l598 1434h1202v-166h-670v-449h517v-162h-517v-493h670v-164h-860v469h-553l-192 -469h-195zM395 631h500v641h-227z" />
<glyph unicode="&#xc7;" horiz-adv-x="1185" d="M72 721q0 199 73 364t213 265t320 100q189 0 310.5 -83.5t197.5 -258.5l-166 -82q-107 256 -350 256q-93 0 -171.5 -47.5t-128.5 -125t-78 -171t-28 -188.5v-56q0 -96 29 -190.5t81 -173t135.5 -127.5t182.5 -49q105 0 191 68.5t137 191.5l166 -86q-184 -342 -508 -342 h-35l-37 -138h4q85 0 133 -47.5t48 -136.5q0 -103 -71 -155t-175 -52h-117v117h109q57 0 94 22t37 68q0 43 -35 61.5t-86 18.5h-92l69 258q-150 36 -253.5 143t-151 253t-47.5 323z" />
<glyph unicode="&#xc8;" horiz-adv-x="1064" d="M133 0v1434h860v-166h-669v-449h516v-162h-516v-493h669v-164h-860zM344 1892l100 119l387 -299l-96 -123z" />
<glyph unicode="&#xc9;" horiz-adv-x="1064" d="M133 0v1434h860v-166h-669v-449h516v-162h-516v-493h669v-164h-860zM344 1712l387 299l100 -119l-391 -303z" />
<glyph unicode="&#xca;" horiz-adv-x="1064" d="M133 0v1434h860v-166h-669v-449h516v-162h-516v-493h669v-164h-860zM201 1712l387 299l387 -299l-96 -123l-291 226l-291 -226z" />
<glyph unicode="&#xcb;" horiz-adv-x="1064" d="M133 0v1434h860v-166h-669v-449h516v-162h-516v-493h669v-164h-860zM244 1817q0 59 41 100t100 41t100 -41t41 -100t-41.5 -100.5t-99.5 -41.5t-99.5 41.5t-41.5 100.5zM670 1817q0 59 41 100t100 41t100 -41t41 -100t-41.5 -100.5t-99.5 -41.5t-99.5 41.5t-41.5 100.5z " />
<glyph unicode="&#xcc;" horiz-adv-x="790" d="M72 1270v164h647v-164h-225v-1106h225v-164h-645v164h227v1106h-229zM152 1892l100 119l387 -299l-96 -123z" />
<glyph unicode="&#xcd;" horiz-adv-x="790" d="M72 1270v164h647v-164h-225v-1106h225v-164h-645v164h227v1106h-229zM152 1712l387 299l100 -119l-391 -303z" />
<glyph unicode="&#xce;" horiz-adv-x="917" d="M72 1712l387 299l387 -299l-96 -123l-291 226l-291 -226zM135 1270v164h647v-164h-225v-1106h225v-164h-645v164h228v1106h-230z" />
<glyph unicode="&#xcf;" horiz-adv-x="851" d="M72 1817q0 59 41 100t100 41t100 -41t41 -100t-41.5 -100.5t-99.5 -41.5t-99.5 41.5t-41.5 100.5zM92 1270v164h647v-164h-225v-1106h225v-164h-645v164h228v1106h-230zM498 1817q0 59 41 100t100 41t100 -41t41 -100t-41.5 -100.5t-99.5 -41.5t-99.5 41.5t-41.5 100.5z " />
<glyph unicode="&#xd1;" horiz-adv-x="1417" d="M133 0v1419l166 41l793 -1112v1086h192v-1420l-162 -41l-796 1112v-1085h-193zM328 1704q55 84 132.5 145.5t137.5 61.5q69 0 131 -41l88 -55q29 -19 46 -26t42 -7q68 0 160 123l113 -90q-49 -79 -127.5 -145t-145.5 -66q-57 0 -106 32l-92 62q-56 37 -103 37 q-35 0 -69.5 -29.5t-85.5 -95.5z" />
<glyph unicode="&#xd2;" horiz-adv-x="1484" d="M72 717q0 149 46 281.5t130 232.5t212.5 158.5t284.5 58.5t284 -58.5t211 -159t128 -232.5t45 -281t-45 -281t-128 -232.5t-211 -159t-284 -58.5t-284.5 58.5t-212.5 158.5t-130 232.5t-46 281.5zM264 717q0 -101 31 -199.5t89 -180.5t151.5 -132.5t207.5 -50.5 q92 0 171 33.5t134.5 89.5t95 129t58.5 152t19 159t-19 159t-58.5 152t-95 129t-134.5 89.5t-171 33.5q-93 0 -173 -33t-135 -88.5t-94.5 -128.5t-58 -152.5t-18.5 -160.5zM496 1892l100 119l387 -299l-96 -123z" />
<glyph unicode="&#xd3;" horiz-adv-x="1484" d="M72 717q0 149 46 281.5t130 232.5t212.5 158.5t284.5 58.5t284 -58.5t211 -159t128 -232.5t45 -281t-45 -281t-128 -232.5t-211 -159t-284 -58.5t-284.5 58.5t-212.5 158.5t-130 232.5t-46 281.5zM264 717q0 -101 31 -199.5t89 -180.5t151.5 -132.5t207.5 -50.5 q92 0 171 33.5t134.5 89.5t95 129t58.5 152t19 159t-19 159t-58.5 152t-95 129t-134.5 89.5t-171 33.5q-93 0 -173 -33t-135 -88.5t-94.5 -128.5t-58 -152.5t-18.5 -160.5zM496 1712l387 299l100 -119l-391 -303z" />
<glyph unicode="&#xd4;" horiz-adv-x="1484" d="M72 717q0 149 46 281.5t130 232.5t212.5 158.5t284.5 58.5t284 -58.5t211 -159t128 -232.5t45 -281t-45 -281t-128 -232.5t-211 -159t-284 -58.5t-284.5 58.5t-212.5 158.5t-130 232.5t-46 281.5zM264 717q0 -101 31 -199.5t89 -180.5t151.5 -132.5t207.5 -50.5 q92 0 171 33.5t134.5 89.5t95 129t58.5 152t19 159t-19 159t-58.5 152t-95 129t-134.5 89.5t-171 33.5q-93 0 -173 -33t-135 -88.5t-94.5 -128.5t-58 -152.5t-18.5 -160.5zM352 1712l387 299l387 -299l-96 -123l-291 226l-290 -226z" />
<glyph unicode="&#xd5;" horiz-adv-x="1484" d="M72 717q0 149 46 281.5t130 232.5t212.5 158.5t284.5 58.5t284 -58.5t211 -159t128 -232.5t45 -281t-45 -281t-128 -232.5t-211 -159t-284 -58.5t-284.5 58.5t-212.5 158.5t-130 232.5t-46 281.5zM264 717q0 -101 31 -199.5t89 -180.5t151.5 -132.5t207.5 -50.5 q92 0 171 33.5t134.5 89.5t95 129t58.5 152t19 159t-19 159t-58.5 152t-95 129t-134.5 89.5t-171 33.5q-93 0 -173 -33t-135 -88.5t-94.5 -128.5t-58 -152.5t-18.5 -160.5zM324 1704q55 84 132.5 145.5t137.5 61.5q69 0 131 -41l88 -55q29 -19 46 -26t42 -7q68 0 160 123 l113 -90q-49 -79 -127.5 -145t-145.5 -66q-57 0 -106 32l-93 62q-56 37 -102 37q-35 0 -70 -29.5t-86 -95.5z" />
<glyph unicode="&#xd6;" horiz-adv-x="1484" d="M72 717q0 149 46 281.5t130 232.5t212.5 158.5t284.5 58.5t284 -58.5t211 -159t128 -232.5t45 -281t-45 -281t-128 -232.5t-211 -159t-284 -58.5t-284.5 58.5t-212.5 158.5t-130 232.5t-46 281.5zM264 717q0 -101 31 -199.5t89 -180.5t151.5 -132.5t207.5 -50.5 q92 0 171 33.5t134.5 89.5t95 129t58.5 152t19 159t-19 159t-58.5 152t-95 129t-134.5 89.5t-171 33.5q-93 0 -173 -33t-135 -88.5t-94.5 -128.5t-58 -152.5t-18.5 -160.5zM395 1817q0 58 41.5 99.5t100.5 41.5t100 -41t41 -100t-41.5 -100.5t-99.5 -41.5q-59 0 -100.5 41.5 t-41.5 100.5zM821 1817q0 58 41.5 99.5t100.5 41.5t100 -41t41 -100t-41.5 -100.5t-99.5 -41.5q-59 0 -100.5 41.5t-41.5 100.5z" />
<glyph unicode="&#xd7;" horiz-adv-x="1009" d="M154 575l241 244l-241 244l108 111l244 -244l239 244l111 -111l-242 -244l242 -244l-111 -110l-239 244l-244 -244z" />
<glyph unicode="&#xd8;" horiz-adv-x="1484" d="M72 717q0 149 46 281.5t130 232.5t212.5 158.5t284.5 58.5q205 0 361 -100l113 159l127 -88l-121 -172q92 -101 140 -237.5t48 -292.5q0 -149 -45 -281t-128 -232.5t-211 -159t-284 -58.5q-188 0 -342 88l-104 -150l-127 88l109 156q-101 101 -155 243.5t-54 305.5z M264 717q0 -104 32.5 -206.5t94.5 -184.5l610 872q-113 82 -258 82q-93 0 -173 -33t-135 -88.5t-94.5 -128.5t-58 -152.5t-18.5 -160.5zM506 221q103 -67 237 -67q92 0 171 33.5t134.5 89.5t95 129t58.5 152t19 159q0 207 -111 366z" />
<glyph unicode="&#xd9;" horiz-adv-x="1280" d="M113 629v805h192v-805q0 -47 1 -79t7.5 -86t18.5 -91.5t36 -82t57 -72t85.5 -46t118.5 -18.5q67 0 121.5 18.5t90 46.5t61.5 71t39.5 83t21.5 91t10 86.5t2 78.5v805h192v-805q0 -74 -6 -138t-22 -131t-42 -120.5t-68 -102t-97 -81t-132 -51.5t-171 -19 q-98 0 -175.5 19.5t-131 51t-92.5 81.5t-61 101.5t-35 121t-17 130t-4 138.5zM397 1892l101 119l387 -299l-97 -123z" />
<glyph unicode="&#xda;" horiz-adv-x="1280" d="M113 629v805h192v-805q0 -47 1 -79t7.5 -86t18.5 -91.5t36 -82t57 -72t85.5 -46t118.5 -18.5q67 0 121.5 18.5t90 46.5t61.5 71t39.5 83t21.5 91t10 86.5t2 78.5v805h192v-805q0 -74 -6 -138t-22 -131t-42 -120.5t-68 -102t-97 -81t-132 -51.5t-171 -19 q-98 0 -175.5 19.5t-131 51t-92.5 81.5t-61 101.5t-35 121t-17 130t-4 138.5zM397 1712l387 299l101 -119l-391 -303z" />
<glyph unicode="&#xdb;" horiz-adv-x="1280" d="M113 629v805h192v-805q0 -47 1 -79t7.5 -86t18.5 -91.5t36 -82t57 -72t85.5 -46t118.5 -18.5q67 0 121.5 18.5t90 46.5t61.5 71t39.5 83t21.5 91t10 86.5t2 78.5v805h192v-805q0 -74 -6 -138t-22 -131t-42 -120.5t-68 -102t-97 -81t-132 -51.5t-171 -19 q-98 0 -175.5 19.5t-131 51t-92.5 81.5t-61 101.5t-35 121t-17 130t-4 138.5zM254 1712l387 299l387 -299l-96 -123l-291 226l-291 -226z" />
<glyph unicode="&#xdc;" horiz-adv-x="1280" d="M113 629v805h192v-805q0 -47 1 -79t7.5 -86t18.5 -91.5t36 -82t57 -72t85.5 -46t118.5 -18.5q67 0 121.5 18.5t90 46.5t61.5 71t39.5 83t21.5 91t10 86.5t2 78.5v805h192v-805q0 -74 -6 -138t-22 -131t-42 -120.5t-68 -102t-97 -81t-132 -51.5t-171 -19 q-98 0 -175.5 19.5t-131 51t-92.5 81.5t-61 101.5t-35 121t-17 130t-4 138.5zM297 1817q0 59 41.5 100t99.5 41q59 0 100.5 -41.5t41.5 -99.5q0 -59 -42 -100.5t-100 -41.5t-99.5 41.5t-41.5 100.5zM723 1817q0 59 41.5 100t99.5 41q59 0 100.5 -41.5t41.5 -99.5 q0 -59 -42 -100.5t-100 -41.5t-99.5 41.5t-41.5 100.5z" />
<glyph unicode="&#xdd;" horiz-adv-x="1040" d="M10 1368l172 86l359 -647l329 647l160 -76l-399 -782v-596h-193v596zM322 1651l387 299l100 -119l-391 -303z" />
<glyph unicode="&#xdf;" horiz-adv-x="1220" d="M123 0v1114q0 258 121.5 396.5t363.5 138.5q204 0 320 -102t116 -279q0 -131 -75 -242t-201 -154q74 -7 139.5 -33.5t121 -74.5t88 -126t32.5 -177q0 -132 -73.5 -239.5t-188 -164.5t-242.5 -57h-186v147h186q131 0 227.5 90.5t96.5 241.5q0 78 -39 136.5t-106 91 t-145.5 48t-168.5 15.5v148q145 2 248.5 98t103.5 237q0 102 -73.5 174t-180.5 72q-167 0 -238 -98.5t-71 -286.5v-1114h-176z" />
<glyph unicode="&#xe0;" horiz-adv-x="1286" d="M102 287q0 73 27 132t70.5 97.5t102 64.5t118 37t121.5 11q147 0 272 -47v94q0 112 -49.5 164.5t-171.5 52.5q-129 0 -350 -129l-68 141q130 68 231.5 101.5t217.5 33.5q366 0 366 -356v-446q0 -105 80 -105q37 0 65.5 29t59.5 82l113 -90q-117 -168 -256 -168 q-160 0 -215 123q-70 -54 -165.5 -94t-201.5 -40q-70 0 -134.5 19t-117 56t-84 98t-31.5 139zM279 299q0 -85 59 -129.5t158 -44.5q88 0 172.5 36.5t144.5 96.5v172q-159 51 -297 51q-104 0 -170.5 -52t-66.5 -130zM356 1483l101 119l387 -299l-96 -123z" />
<glyph unicode="&#xe1;" horiz-adv-x="1286" d="M102 287q0 73 27 132t70.5 97.5t102 64.5t118 37t121.5 11q147 0 272 -47v94q0 112 -49.5 164.5t-171.5 52.5q-129 0 -350 -129l-68 141q130 68 231.5 101.5t217.5 33.5q366 0 366 -356v-446q0 -105 80 -105q37 0 65.5 29t59.5 82l113 -90q-117 -168 -256 -168 q-160 0 -215 123q-70 -54 -165.5 -94t-201.5 -40q-70 0 -134.5 19t-117 56t-84 98t-31.5 139zM279 299q0 -85 59 -129.5t158 -44.5q88 0 172.5 36.5t144.5 96.5v172q-159 51 -297 51q-104 0 -170.5 -52t-66.5 -130zM397 1303l387 299l101 -119l-391 -303z" />
<glyph unicode="&#xe2;" horiz-adv-x="1286" d="M102 287q0 73 27 132t70.5 97.5t102 64.5t118 37t121.5 11q147 0 272 -47v94q0 112 -49.5 164.5t-171.5 52.5q-129 0 -350 -129l-68 141q130 68 231.5 101.5t217.5 33.5q366 0 366 -356v-446q0 -105 80 -105q37 0 65.5 29t59.5 82l113 -90q-117 -168 -256 -168 q-160 0 -215 123q-70 -54 -165.5 -94t-201.5 -40q-70 0 -134.5 19t-117 56t-84 98t-31.5 139zM186 1303l387 299l388 -299l-97 -123l-291 225l-290 -225zM279 299q0 -85 59 -129.5t158 -44.5q88 0 172.5 36.5t144.5 96.5v172q-159 51 -297 51q-104 0 -170.5 -52t-66.5 -130z " />
<glyph unicode="&#xe3;" horiz-adv-x="1286" d="M102 287q0 73 27 132t70.5 97.5t102 64.5t118 37t121.5 11q147 0 272 -47v94q0 112 -49.5 164.5t-171.5 52.5q-129 0 -350 -129l-68 141q130 68 231.5 101.5t217.5 33.5q366 0 366 -356v-446q0 -105 80 -105q37 0 65.5 29t59.5 82l113 -90q-117 -168 -256 -168 q-160 0 -215 123q-70 -54 -165.5 -94t-201.5 -40q-70 0 -134.5 19t-117 56t-84 98t-31.5 139zM190 1356q55 84 133 145.5t138 61.5q69 0 131 -41l88 -56q28 -18 45.5 -25t42.5 -7q39 0 77.5 32t82.5 90l112 -90q-49 -79 -127 -145t-145 -66q-56 0 -106 33l-93 62 q-55 36 -102 36q-35 0 -70.5 -29.5t-85.5 -94.5zM279 299q0 -85 59 -129.5t158 -44.5q88 0 172.5 36.5t144.5 96.5v172q-159 51 -297 51q-104 0 -170.5 -52t-66.5 -130z" />
<glyph unicode="&#xe4;" horiz-adv-x="1286" d="M102 287q0 73 27 132t70.5 97.5t102 64.5t118 37t121.5 11q147 0 272 -47v94q0 112 -49.5 164.5t-171.5 52.5q-129 0 -350 -129l-68 141q130 68 231.5 101.5t217.5 33.5q366 0 366 -356v-446q0 -105 80 -105q37 0 65.5 29t59.5 82l113 -90q-117 -168 -256 -168 q-160 0 -215 123q-70 -54 -165.5 -94t-201.5 -40q-70 0 -134.5 19t-117 56t-84 98t-31.5 139zM256 1407q0 59 41 100t100 41t100.5 -41.5t41.5 -99.5t-41.5 -99.5t-100.5 -41.5t-100 41t-41 100zM279 299q0 -85 59 -129.5t158 -44.5q88 0 172.5 36.5t144.5 96.5v172 q-159 51 -297 51q-104 0 -170.5 -52t-66.5 -130zM682 1407q0 59 41 100t100 41t100.5 -41.5t41.5 -99.5t-41.5 -99.5t-100.5 -41.5t-100 41t-41 100z" />
<glyph unicode="&#xe5;" horiz-adv-x="1286" d="M102 287q0 73 27 132t70.5 97.5t102 64.5t118 37t121.5 11q147 0 272 -47v94q0 112 -49.5 164.5t-171.5 52.5q-129 0 -350 -129l-68 141q130 68 231.5 101.5t217.5 33.5q366 0 366 -356v-446q0 -105 80 -105q37 0 65.5 29t59.5 82l113 -90q-117 -168 -256 -168 q-160 0 -215 123q-70 -54 -165.5 -94t-201.5 -40q-70 0 -134.5 19t-117 56t-84 98t-31.5 139zM279 299q0 -85 59 -129.5t158 -44.5q88 0 172.5 36.5t144.5 96.5v172q-159 51 -297 51q-104 0 -170.5 -52t-66.5 -130zM387 1425q0 99 62.5 160.5t162.5 61.5q97 0 160.5 -62 t63.5 -160q0 -96 -63.5 -157.5t-160.5 -61.5q-99 0 -162 61.5t-63 157.5zM512 1427q0 -45 26.5 -77.5t73.5 -32.5q45 0 71 33.5t26 76.5q0 42 -26.5 76.5t-70.5 34.5q-47 0 -73.5 -33.5t-26.5 -77.5z" />
<glyph unicode="&#xe6;" horiz-adv-x="1816" d="M102 287q0 73 27 132t71 97.5t102.5 64.5t118 37t120.5 11q131 0 252 -47v94q0 112 -50 164.5t-172 52.5q-129 0 -350 -129l-67 141q130 69 231 102t217 33q244 0 326 -157q67 75 161.5 115t200.5 40q215 0 335 -134.5t120 -377.5v-53h-772q10 -150 106 -245t230 -95 q106 0 179 44t142 130l109 -98q-91 -110 -191 -166.5t-254 -56.5q-268 0 -405 192q-72 -88 -186.5 -145.5t-227.5 -57.5q-76 0 -142.5 19t-118.5 56t-82 98t-30 139zM279 299q0 -86 61.5 -130t171.5 -44q81 0 165.5 41.5t153.5 124.5q-22 57 -32 137q-165 53 -283 53 q-102 0 -169.5 -52t-67.5 -130zM979 621h592q0 115 -80 192.5t-201 77.5q-266 0 -311 -270z" />
<glyph unicode="&#xe7;" horiz-adv-x="1097" d="M72 508q0 136 65 256.5t182.5 196t258.5 75.5q199 0 320.5 -86.5t156.5 -257.5l-170 -53q-27 125 -100 187.5t-207 62.5q-103 0 -180 -56.5t-113.5 -141.5t-36.5 -183q0 -91 43 -176.5t122 -142t173 -56.5q119 0 201 64.5t128 160.5l142 -84q-143 -270 -447 -286 l-37 -140h5q85 0 132.5 -47.5t47.5 -136.5q0 -103 -71 -155t-175 -52h-117v117h109q57 0 94 22t37 68q0 43 -35 61.5t-86 18.5h-92l67 248q-187 26 -302 170.5t-115 345.5z" />
<glyph unicode="&#xe8;" horiz-adv-x="1093" d="M72 510q0 121 39.5 221.5t107 167t157.5 103t191 36.5q215 0 335 -134.5t120 -377.5v-53h-772q10 -150 106 -245t230 -95q106 0 179 44t142 130l109 -98q-91 -110 -191 -166.5t-254 -56.5q-227 0 -363 142.5t-136 381.5zM256 621h592q0 115 -80 192.5t-201 77.5 q-266 0 -311 -270zM317 1483l101 119l387 -299l-96 -123z" />
<glyph unicode="&#xe9;" horiz-adv-x="1093" d="M72 510q0 121 39.5 221.5t107 167t157.5 103t191 36.5q215 0 335 -134.5t120 -377.5v-53h-772q10 -150 106 -245t230 -95q106 0 179 44t142 130l109 -98q-91 -110 -191 -166.5t-254 -56.5q-227 0 -363 142.5t-136 381.5zM256 621h592q0 115 -80 192.5t-201 77.5 q-266 0 -311 -270zM387 1303l387 299l100 -119l-391 -303z" />
<glyph unicode="&#xea;" horiz-adv-x="1093" d="M72 510q0 121 39.5 221.5t107 167t157.5 103t191 36.5q215 0 335 -134.5t120 -377.5v-53h-772q10 -150 106 -245t230 -95q106 0 179 44t142 130l109 -98q-91 -110 -191 -166.5t-254 -56.5q-227 0 -363 142.5t-136 381.5zM174 1303l387 299l387 -299l-96 -123l-291 225 l-291 -225zM256 621h592q0 115 -80 192.5t-201 77.5q-266 0 -311 -270z" />
<glyph unicode="&#xeb;" horiz-adv-x="1093" d="M72 510q0 121 39.5 221.5t107 167t157.5 103t191 36.5q215 0 335 -134.5t120 -377.5v-53h-772q10 -150 106 -245t230 -95q106 0 179 44t142 130l109 -98q-91 -110 -191 -166.5t-254 -56.5q-227 0 -363 142.5t-136 381.5zM217 1407q0 59 41.5 100t99.5 41 q59 0 100.5 -41.5t41.5 -99.5t-41.5 -99.5t-100.5 -41.5q-58 0 -99.5 41t-41.5 100zM256 621h592q0 115 -80 192.5t-201 77.5q-266 0 -311 -270zM643 1407q0 59 41.5 100t99.5 41q59 0 100.5 -41.5t41.5 -99.5t-41.5 -99.5t-100.5 -41.5q-58 0 -99.5 41t-41.5 100z" />
<glyph unicode="&#xec;" horiz-adv-x="733" d="M123 1483l100 119l387 -299l-96 -123zM279 0v1024h178v-1024h-178z" />
<glyph unicode="&#xed;" horiz-adv-x="733" d="M123 1303l387 299l100 -119l-391 -303zM279 0v1024h178v-1024h-178z" />
<glyph unicode="&#xee;" horiz-adv-x="1019" d="M123 1303l387 299l387 -299l-96 -123l-291 225l-291 -225zM422 0v1024h178v-1024h-178z" />
<glyph unicode="&#xef;" horiz-adv-x="954" d="M123 1407q0 59 41.5 100t99.5 41q59 0 100.5 -41.5t41.5 -99.5t-41.5 -99.5t-100.5 -41.5q-58 0 -99.5 41t-41.5 100zM379 0v1024h178v-1024h-178zM549 1407q0 59 41.5 100t99.5 41t99.5 -41t41.5 -100t-41.5 -100t-99.5 -41t-99.5 41t-41.5 100z" />
<glyph unicode="&#xf1;" d="M123 0v1024h176v-152q79 72 183 118t212 46q205 0 306.5 -108t101.5 -312v-616h-176v551q0 154 -62 235.5t-207 81.5q-92 0 -187 -54t-171 -134v-680h-176zM199 1356q55 84 132.5 145.5t137.5 61.5q69 0 131 -41l88 -56q28 -18 45.5 -25t42.5 -7q39 0 77.5 32t82.5 90 l113 -90q-49 -79 -127.5 -145t-145.5 -66q-56 0 -106 33l-92 62q-55 36 -103 36q-35 0 -70.5 -29.5t-85.5 -94.5z" />
<glyph unicode="&#xf2;" d="M72 514q0 232 149 377t379 145q151 0 272 -64t191 -184t70 -274q0 -234 -149.5 -381t-383.5 -147q-235 0 -381.5 146.5t-146.5 381.5zM248 514q0 -156 98.5 -268.5t253.5 -112.5q158 0 257 111.5t99 269.5t-94.5 266.5t-261.5 108.5q-84 0 -152 -31t-111 -83.5 t-66 -119.5t-23 -141zM397 1483l101 119l387 -299l-97 -123z" />
<glyph unicode="&#xf3;" d="M72 514q0 232 149 377t379 145q151 0 272 -64t191 -184t70 -274q0 -234 -149.5 -381t-383.5 -147q-235 0 -381.5 146.5t-146.5 381.5zM248 514q0 -156 98.5 -268.5t253.5 -112.5q158 0 257 111.5t99 269.5t-94.5 266.5t-261.5 108.5q-84 0 -152 -31t-111 -83.5 t-66 -119.5t-23 -141zM397 1303l387 299l101 -119l-391 -303z" />
<glyph unicode="&#xf4;" d="M72 514q0 232 149 377t379 145q151 0 272 -64t191 -184t70 -274q0 -234 -149.5 -381t-383.5 -147q-235 0 -381.5 146.5t-146.5 381.5zM248 514q0 -156 98.5 -268.5t253.5 -112.5q158 0 257 111.5t99 269.5t-94.5 266.5t-261.5 108.5q-84 0 -152 -31t-111 -83.5 t-66 -119.5t-23 -141zM254 1303l387 299l387 -299l-96 -123l-291 225l-291 -225z" />
<glyph unicode="&#xf5;" d="M72 514q0 232 149 377t379 145q151 0 272 -64t191 -184t70 -274q0 -234 -149.5 -381t-383.5 -147q-235 0 -381.5 146.5t-146.5 381.5zM178 1356q55 84 133 145.5t138 61.5q69 0 131 -41l88 -56q28 -18 45.5 -25t42.5 -7q68 0 159 122l113 -90q-49 -79 -127 -145t-145 -66 q-57 0 -107 33l-92 62q-55 36 -102 36q-35 0 -70.5 -29.5t-85.5 -94.5zM248 514q0 -156 98.5 -268.5t253.5 -112.5q158 0 257 111.5t99 269.5t-94.5 266.5t-261.5 108.5q-84 0 -152 -31t-111 -83.5t-66 -119.5t-23 -141z" />
<glyph unicode="&#xf6;" d="M72 514q0 232 149 377t379 145q151 0 272 -64t191 -184t70 -274q0 -234 -149.5 -381t-383.5 -147q-235 0 -381.5 146.5t-146.5 381.5zM248 514q0 -156 98.5 -268.5t253.5 -112.5q158 0 257 111.5t99 269.5t-94.5 266.5t-261.5 108.5q-84 0 -152 -31t-111 -83.5 t-66 -119.5t-23 -141zM297 1407q0 59 41.5 100t99.5 41q59 0 100.5 -41.5t41.5 -99.5t-41.5 -99.5t-100.5 -41.5q-58 0 -99.5 41t-41.5 100zM723 1407q0 59 41.5 100t99.5 41q59 0 100.5 -41.5t41.5 -99.5t-41.5 -99.5t-100.5 -41.5q-58 0 -99.5 41t-41.5 100z" />
<glyph unicode="&#xf7;" horiz-adv-x="962" d="M133 618v156h696v-156h-696zM348 295q0 56 39 95.5t94 39.5t94 -39.5t39 -95.5q0 -55 -39 -94t-94 -39t-94 39t-39 94zM348 1079q0 56 39 95.5t94 39.5t95 -40t40 -95t-39.5 -94t-95.5 -39q-55 0 -94 39t-39 94z" />
<glyph unicode="&#xf8;" horiz-adv-x="1282" d="M72 514q0 232 149 377t379 145q135 0 254 -55l109 154l120 -88l-106 -150q156 -149 156 -383t-149.5 -381t-383.5 -147q-130 0 -233 47l-107 -150l-121 88l101 142q-168 149 -168 401zM248 514q0 -151 92 -260l424 600q-72 35 -164 35q-84 0 -152 -31t-111 -83.5 t-66 -119.5t-23 -141zM459 164q64 -31 141 -31q158 0 257 111.5t99 269.5q0 143 -75 244z" />
<glyph unicode="&#xf9;" d="M102 406v616h177v-551q0 -154 61.5 -235.5t206.5 -81.5q92 0 187 54t171 134v680h176v-1024h-176v152q-79 -72 -183 -118t-212 -46q-205 0 -306.5 108t-101.5 312zM305 1483l101 119l387 -299l-97 -123z" />
<glyph unicode="&#xfa;" d="M102 406v616h177v-551q0 -154 61.5 -235.5t206.5 -81.5q92 0 187 54t171 134v680h176v-1024h-176v152q-79 -72 -183 -118t-212 -46q-205 0 -306.5 108t-101.5 312zM387 1303l387 299l100 -119l-391 -303z" />
<glyph unicode="&#xfb;" d="M102 406v616h177v-551q0 -154 61.5 -235.5t206.5 -81.5q92 0 187 54t171 134v680h176v-1024h-176v152q-79 -72 -183 -118t-212 -46q-205 0 -306.5 108t-101.5 312zM143 1303l387 299l388 -299l-97 -123l-291 225l-290 -225z" />
<glyph unicode="&#xfc;" d="M102 406v616h177v-551q0 -154 61.5 -235.5t206.5 -81.5q92 0 187 54t171 134v680h176v-1024h-176v152q-79 -72 -183 -118t-212 -46q-205 0 -306.5 108t-101.5 312zM205 1407q0 59 41.5 100t99.5 41t99.5 -41t41.5 -100t-41.5 -100t-99.5 -41t-99.5 41t-41.5 100z M631 1407q0 59 41.5 100t99.5 41t99.5 -41t41.5 -100t-41.5 -100t-99.5 -41t-99.5 41t-41.5 100z" />
<glyph unicode="&#xfd;" horiz-adv-x="1077" d="M-129 -309l141 90q74 -193 211 -193q37 0 65.5 14.5t51.5 48t39.5 68t38.5 93.5l63 163l-428 1010l162 66l356 -838l318 838l147 -66l-485 -1278q-100 -266 -334 -266q-247 0 -346 250zM365 1303l387 299l100 -119l-391 -303z" />
<glyph unicode="&#xff;" horiz-adv-x="1077" d="M-129 -309l141 90q74 -193 211 -193q37 0 65.5 14.5t51.5 48t39.5 68t38.5 93.5l63 163l-428 1010l162 66l356 -838l318 838l147 -66l-485 -1278q-100 -266 -334 -266q-247 0 -346 250zM219 1407q0 59 41.5 100t99.5 41q59 0 100.5 -41.5t41.5 -99.5t-41.5 -99.5 t-100.5 -41.5q-58 0 -99.5 41t-41.5 100zM645 1407q0 59 41.5 100t99.5 41q59 0 100.5 -41.5t41.5 -99.5t-41.5 -99.5t-100.5 -41.5q-58 0 -99.5 41t-41.5 100z" />
<glyph unicode="&#x152;" horiz-adv-x="1974" d="M72 717q0 149 46 281.5t130 232.5t212.5 158.5t284.5 58.5q82 0 148 -14h1010v-168h-695q173 -176 201 -451h340v-168h-338q-22 -295 -203 -479h695v-168h-1010q-66 -14 -148 -14q-156 0 -284.5 58.5t-212.5 158.5t-130 232.5t-46 281.5zM264 717q0 -101 31 -199.5 t89 -180.5t151.5 -132.5t207.5 -50.5q92 0 171 33.5t134.5 89.5t95 129t58.5 152t19 159t-19 159t-58.5 152t-95 129t-134.5 89.5t-171 33.5q-93 0 -173 -33t-135 -88.5t-94.5 -128.5t-58 -152.5t-18.5 -160.5z" />
<glyph unicode="&#x153;" horiz-adv-x="2039" d="M72 514q0 232 149 377t379 145q158 0 283 -71t190 -197q63 128 179.5 199t260.5 71q215 0 335 -134.5t120 -377.5v-53h-772q10 -150 106 -245t230 -95q106 0 179 44t142 130l109 -98q-44 -53 -84 -89.5t-93 -69t-119.5 -48.5t-147.5 -16q-157 0 -272.5 69t-174.5 195 q-65 -124 -188.5 -194t-282.5 -70q-235 0 -381.5 146.5t-146.5 381.5zM248 514q0 -156 98.5 -268.5t253.5 -112.5q158 0 257 111.5t99 269.5t-94.5 266.5t-261.5 108.5q-84 0 -152 -31t-111 -83.5t-66 -119.5t-23 -141zM1202 621h592q0 115 -80 192.5t-201 77.5 q-266 0 -311 -270z" />
<glyph unicode="&#x178;" horiz-adv-x="1040" d="M10 1368l172 86l359 -647l329 647l160 -76l-399 -782v-596h-193v596zM176 1755q0 59 41 100t100 41t100.5 -41.5t41.5 -99.5t-41.5 -99.5t-100.5 -41.5t-100 41t-41 100zM602 1755q0 59 41 100t100 41t100.5 -41.5t41.5 -99.5t-41.5 -99.5t-100.5 -41.5t-100 41t-41 100z " />
<glyph unicode="&#x2c6;" horiz-adv-x="0" d="M102 1303l387 299l388 -299l-97 -123l-291 225l-290 -225z" />
<glyph unicode="&#x2dc;" horiz-adv-x="0" d="M147 1356q55 84 133 145.5t138 61.5q69 0 131 -41l88 -56q28 -18 45.5 -25t42.5 -7q69 0 160 122l112 -90q-49 -79 -127 -145t-145 -66q-57 0 -107 33l-92 62q-55 36 -102 36q-35 0 -70.5 -29.5t-85.5 -94.5z" />
<glyph unicode="&#x2000;" horiz-adv-x="1005" />
<glyph unicode="&#x2001;" horiz-adv-x="2011" />
<glyph unicode="&#x2002;" horiz-adv-x="1005" />
<glyph unicode="&#x2003;" horiz-adv-x="2011" />
<glyph unicode="&#x2004;" horiz-adv-x="670" />
<glyph unicode="&#x2005;" horiz-adv-x="502" />
<glyph unicode="&#x2006;" horiz-adv-x="335" />
<glyph unicode="&#x2007;" horiz-adv-x="335" />
<glyph unicode="&#x2008;" horiz-adv-x="251" />
<glyph unicode="&#x2009;" horiz-adv-x="402" />
<glyph unicode="&#x200a;" horiz-adv-x="111" />
<glyph unicode="&#x2010;" horiz-adv-x="976" d="M133 481v166h711v-166h-711z" />
<glyph unicode="&#x2011;" horiz-adv-x="976" d="M133 481v166h711v-166h-711z" />
<glyph unicode="&#x2012;" horiz-adv-x="976" d="M133 481v166h711v-166h-711z" />
<glyph unicode="&#x2013;" horiz-adv-x="1374" d="M133 522v146h1108v-146h-1108z" />
<glyph unicode="&#x2014;" horiz-adv-x="1890" d="M154 522v146h1583v-146h-1583z" />
<glyph unicode="&#x2018;" horiz-adv-x="462" d="M0 1591v47h154v-47q0 -112 49 -191t172 -136l88 -41l-51 -140l-78 33q-175 73 -254.5 186.5t-79.5 288.5z" />
<glyph unicode="&#x2019;" horiz-adv-x="462" d="M0 1223l88 41q123 57 172 136t49 191v47h154v-47q0 -175 -79.5 -288.5t-254.5 -186.5l-78 -33z" />
<glyph unicode="&#x201a;" horiz-adv-x="462" d="M0 -211l88 41q123 57 172 136.5t49 191.5v47h154v-47q0 -175 -79.5 -288.5t-254.5 -186.5l-78 -33z" />
<glyph unicode="&#x201c;" horiz-adv-x="729" d="M0 1427v48h154v-48q0 -112 49 -191t172 -136l88 -41l-51 -139l-78 32q-175 73 -254.5 186.5t-79.5 288.5zM266 1591v47h154v-47q0 -112 49 -191t172 -136l88 -41l-51 -140l-78 33q-175 73 -254.5 186.5t-79.5 288.5z" />
<glyph unicode="&#x201d;" horiz-adv-x="729" d="M0 1223l88 41q123 57 172 136t49 191v47h154v-47q0 -175 -79.5 -288.5t-254.5 -186.5l-78 -33zM266 1059l88 41q123 57 172 136t49 191v48h154v-48q0 -175 -79.5 -288.5t-254.5 -186.5l-78 -32z" />
<glyph unicode="&#x201e;" horiz-adv-x="729" d="M0 -211l88 41q123 57 172 136.5t49 191.5v47h154v-47q0 -175 -79.5 -288.5t-254.5 -186.5l-78 -33zM266 -375l88 41q123 57 172 136.5t49 191.5v47h154v-47q0 -175 -79.5 -288.5t-254.5 -186.5l-78 -33z" />
<glyph unicode="&#x2022;" horiz-adv-x="1001" d="M133 606q0 166 101 269.5t266 103.5q166 0 267 -103t101 -270t-101 -268.5t-267 -101.5q-165 0 -266 102t-101 268z" />
<glyph unicode="&#x202f;" horiz-adv-x="402" />
<glyph unicode="&#x2039;" horiz-adv-x="808" d="M72 530l483 521l113 -113l-375 -397l383 -461l-129 -105z" />
<glyph unicode="&#x203a;" horiz-adv-x="808" d="M133 80l383 461l-375 397l113 113l483 -521l-475 -555z" />
<glyph unicode="&#x205f;" horiz-adv-x="502" />
<glyph unicode="&#x20ac;" horiz-adv-x="1318" d="M82 467v158h127q-4 62 -4 96q0 35 2 51h-125v158h145q53 232 208 376t376 144q189 0 310.5 -83.5t197.5 -258.5l-166 -82q-107 256 -350 256q-140 0 -240 -100.5t-141 -251.5h459v-158h-484v-22v-56q0 -23 4 -69h439v-158h-402q49 -138 149 -225.5t238 -87.5 q105 0 191 68.5t137 191.5l166 -86q-184 -342 -508 -342q-232 0 -378 131t-200 350h-151z" />
<glyph unicode="&#x25fc;" horiz-adv-x="1044" d="M0 0v1044h1044v-1044h-1044z" />
<glyph unicode="&#xfb01;" horiz-adv-x="1177" d="M123 -2v1116q0 254 127.5 394.5t357.5 140.5q123 0 223.5 -46t162 -138t61.5 -214h-176q0 114 -76 181t-195 67q-155 0 -232 -101t-77 -284v-90h350v-147h-350v-879h-176zM879 0v1024h176v-1024h-176z" />
<glyph unicode="&#xfb02;" horiz-adv-x="1187" d="M123 -2v1116q0 258 121.5 396.5t363.5 138.5q94 0 171.5 -23.5t137.5 -71.5t93.5 -128.5t33.5 -186.5v-1239h-176v1219q0 138 -75.5 209t-184.5 71q-167 0 -238 -98.5t-71 -286.5v-90h342v-147h-342v-879h-176z" />
</font>
</defs>
</svg>
