<?xml version="1.0" standalone="no"?>
<!DOCTYPE svg PUBLIC "-//W3C//DTD SVG 1.1//EN" "http://www.w3.org/Graphics/SVG/1.1/DTD/svg11.dtd" >
<svg xmlns="http://www.w3.org/2000/svg" xmlns:xlink="http://www.w3.org/1999/xlink" version="1.1">
<metadata></metadata>
<defs>
<font id="ft88italic" horiz-adv-x="1433" >
<font-face units-per-em="2048" ascent="1638" descent="-410" />
<missing-glyph horiz-adv-x="500" />
<glyph unicode="&#xfb01;" d="M0 -205h205v-205h-205v205zM205 203h205v-408h-205v408zM205 614v205h409v410h205v-410h410v-409h-205v204h-410v-409h-204v409h-205zM819 0v410h205v-205h205v-205h-410zM819 1229v205h410v-205h-410zM1229 205v205h205v-205h-205zM1229 1024v205h205v-205h-205z" />
<glyph unicode="&#xfb02;" d="M0 -205h205v-205h-205v205zM205 203h205v-408h-205v408zM205 614v205h409v410h203v-410h207v205h205v-410h-205v-409h205v-205h-410v614h-205v-409h-204v409h-205zM817 1229v205h617v-410h-205v205h-412zM1229 205v205h205v-205h-205z" />
<glyph horiz-adv-x="0" />
<glyph horiz-adv-x="0" />
<glyph horiz-adv-x="682" />
<glyph unicode="&#xd;" horiz-adv-x="1638" />
<glyph unicode=" " />
<glyph unicode="!" d="M410 0v205h204v-205h-204zM614 410v614h205v-614h-205zM819 1024v410h205v-410h-205z" />
<glyph unicode="&#x22;" d="M205 1024v205h205v-205h-205zM410 1229v205h204v-205h-204zM819 1024v205h205v-205h-205zM1024 1229v205h205v-205h-205z" />
<glyph unicode="#" d="M0 0v205h205v-205h-205zM0 410v204h410v205h-205v205h409v205h205v-205h205v205h205v-205h205v-205h-410v-205h205v-204h-410v-205h-205v205h-204v-205h-205v205h-205zM410 0v205h204v-205h-204zM614 614h205v205h-205v-205zM819 1229v205h205v-205h-205zM1229 1229v205 h205v-205h-205z" />
<glyph unicode="$" d="M0 205v205h205v-205h-205zM205 0v205h205v205h204v-205h205v-205h-205v-205h-204v205h-205zM205 819v205h205v-205h-205zM410 614v205h204v205h205v-205h205v-205h-205v-204h-205v204h-204zM410 1024v205h204v-205h-204zM614 1229v205h205v204h205v-204h205v-205h-205 v-205h-205v205h-205zM819 205v205h205v-205h-205zM1024 410v204h205v-204h-205zM1229 1024v205h205v-205h-205z" />
<glyph unicode="%" d="M0 1024v205h205v-205h-205zM205 0v205h205v-205h-205zM205 819v205h205v-205h-205zM205 1229v205h205v-205h-205zM410 205v409h204v-409h-204zM410 1024v205h204v-205h-204zM614 614v205h205v-205h-205zM819 205v205h205v-205h-205zM819 819v410h205v-410h-205zM1024 0 v205h205v-205h-205zM1024 410v204h205v-204h-205zM1024 1229v205h205v-205h-205zM1229 205v205h205v-205h-205z" />
<glyph unicode="&#x26;" d="M0 205v409h205v-409h-205zM205 0v205h614v-205h-614zM205 614v410h205v-205h204v-205h-409zM410 1024v205h204v-205h-204zM614 410v204h615v-204h-205v-205h-205v205h-205zM614 1229v205h410v-205h-410zM819 819v205h205v-205h-205zM1024 1024v205h205v-205h-205z M1229 614v205h205v-205h-205z" />
<glyph unicode="'" d="M410 1024v205h204v-205h-204zM614 1229v205h205v-205h-205z" />
<glyph unicode="(" d="M410 205v614h204v-614h-204zM614 0v205h205v-205h-205zM614 819v205h205v-205h-205zM819 0h205v-205h-205v205zM819 1024v205h205v-205h-205zM1024 1229v205h205v-205h-205zM1229 1434v204h205v-204h-205z" />
<glyph unicode=")" d="M205 0h205v-205h-205v205zM410 0v205h204v-205h-204zM614 205v205h205v-205h-205zM614 1434v204h205v-204h-205zM819 410v204h205v-204h-205zM819 1229v205h205v-205h-205zM1024 614v615h205v-615h-205z" />
<glyph unicode="*" d="M410 819v205h204v-205h-204zM410 1229v205h204v-205h-204zM614 1024v205h205v-205h-205zM819 819v205h205v-205h-205zM819 1229v205h205v-205h-205z" />
<glyph unicode="+" d="M205 614v205h409v410h205v-410h410v-205h-410v-409h-205v409h-409z" />
<glyph unicode="," d="M410 -205h204v-205h-204v205zM614 205h205v-410h-205v410z" />
<glyph unicode="-" d="M410 614v205h614v-205h-614z" />
<glyph unicode="." d="M614 0v205h205v-205h-205z" />
<glyph unicode="/" d="M205 -205v410h205v-410h-205zM410 205v409h204v-409h-204zM614 614v205h205v-205h-205zM819 819v410h205v-410h-205zM1024 1229v409h205v-409h-205z" />
<glyph unicode="0" d="M0 205v614h205v-614h-205zM205 0v205h409v-205h-409zM205 819v205h205v-205h-205zM410 1024v205h204v-205h-204zM614 205v205h205v-205h-205zM614 1229v205h410v-205h-410zM819 410v204h205v-204h-205zM1024 614v615h205v-615h-205z" />
<glyph unicode="1" d="M410 0v410h204v-410h-204zM614 410v614h205v-614h-205zM614 1229v205h410v-410h-205v205h-205z" />
<glyph unicode="2" d="M0 0v205h205v205h205v-205h409v-205h-819zM410 410v204h204v-204h-204zM410 1024v205h204v-205h-204zM614 614v205h205v-205h-205zM614 1229v205h410v-205h-410zM819 819v205h205v-205h-205zM1024 1024v205h205v-205h-205z" />
<glyph unicode="3" d="M0 205v205h205v-205h-205zM205 0v205h409v-205h-409zM410 614v205h405v-205h-405zM614 205v205h205v-205h-205zM614 1229v205h615v-410h-205v205h-410zM819 410v204h205v-204h-205zM819 819v205h205v-205h-205z" />
<glyph unicode="4" d="M205 410v409h205v-205h409v410h205v-408h205v-206h-410v-410h-205v410h-409zM410 819v205h204v-205h-204zM614 1024v205h205v-205h-205zM819 1229v205h410v-410h-205v205h-205z" />
<glyph unicode="5" d="M0 205v205h205v-205h-205zM205 0v205h409v-205h-409zM205 819v410h205v-205h409v-205h-614zM410 1229v205h819v-205h-819zM614 205v205h205v-205h-205zM819 410v409h205v-409h-205z" />
<glyph unicode="6" d="M0 205v409h205v-409h-205zM205 0v205h409v-205h-409zM205 614v410h205v-205h407v-205h-612zM410 1024v205h204v-205h-204zM614 205v205h205v-205h-205zM614 1229v205h410v-205h-410zM819 410v204h205v-204h-205zM1024 1024v205h205v-205h-205z" />
<glyph unicode="7" d="M205 0v410h205v-410h-205zM410 410v204h204v-204h-204zM410 1229v205h1024v-205h-205v-205h-205v205h-614zM614 614v205h205v-205h-205zM819 819v205h205v-205h-205z" />
<glyph unicode="8" d="M0 205v205h205v-205h-205zM205 0v205h409v-205h-409zM205 410v204h205v-204h-205zM205 819v205h205v-205h-205zM410 614v205h409v-205h-409zM410 1024v205h204v-205h-204zM614 205v205h205v-205h-205zM614 1229v205h410v-205h-410zM819 410v204h205v-204h-205zM819 819 v205h205v-205h-205zM1024 1024v205h205v-205h-205z" />
<glyph unicode="9" d="M0 205v205h205v-205h-205zM205 0v205h409v-205h-409zM205 819v205h205v-205h-205zM410 614v205h614v-409h-205v204h-409zM410 1024v205h204v-205h-204zM614 205v205h205v-205h-205zM614 1229v205h410v-205h-410zM1024 819v410h205v-410h-205z" />
<glyph unicode=":" d="M410 0v205h204v-205h-204zM614 614v205h205v-205h-205z" />
<glyph unicode=";" d="M205 -205h205v-205h-205v205zM410 205h204v-410h-204v410zM614 614v205h205v-205h-205z" />
<glyph unicode="&#x3c;" d="M410 410v204h204v-204h-204zM614 205v205h205v-205h-205zM614 614v205h205v-205h-205zM819 0v205h205v-205h-205zM819 819v205h205v-205h-205z" />
<glyph unicode="=" d="M205 410v204h1024v-204h-1024zM205 819v205h1024v-205h-1024z" />
<glyph unicode="&#x3e;" d="M410 0v205h204v-205h-204zM410 819v205h204v-205h-204zM614 205v205h205v-205h-205zM614 614v205h205v-205h-205zM819 410v204h205v-204h-205z" />
<glyph unicode="?" d="M410 0v205h204v-205h-204zM410 1024v205h204v-205h-204zM614 410v204h205v-204h-205zM614 1229v205h615v-205h-615zM819 614v205h410v-205h-410zM1229 819v410h205v-410h-205z" />
<glyph unicode="@" d="M0 0v614h205v-614h-205zM205 0h409v-205h-409v205zM205 614v205h205v-205h-205zM410 205v409h204v-204h205v-205h-409zM410 819v205h204v-205h-204zM614 614v205h410v205h205v-410h-205v-204h-205v204h-205zM614 1024v205h410v-205h-410zM819 0v205h205v-205h-205z" />
<glyph unicode="A" d="M0 0v410h205v-410h-205zM205 410v409h205v-205h614v205h205v-409h-205v-410h-205v410h-614zM410 819v410h204v-410h-204zM614 1229v205h615v-205h-615zM1229 819v410h205v-410h-205z" />
<glyph unicode="B" d="M0 0v410h205v-205h614v-205h-819zM205 410v614h205v-205h614v-205h-614v-204h-205zM410 1024v410h819v-205h-615v-205h-204zM819 205v205h205v-205h-205zM1024 410v204h205v-204h-205zM1024 819v205h205v-205h-205zM1229 1024v205h205v-205h-205z" />
<glyph unicode="C" d="M0 205v409h205v-409h-205zM205 0v205h614v-205h-614zM205 614v410h205v-410h-205zM410 1024v205h204v-205h-204zM614 1229v205h615v-205h-615zM819 205v205h205v-205h-205zM1229 1024v205h205v-205h-205z" />
<glyph unicode="D" d="M0 0v410h205v-205h614v-205h-819zM205 410v614h205v-614h-205zM410 1024v410h819v-205h-615v-205h-204zM819 205v205h205v-205h-205zM1024 410v409h205v-409h-205zM1229 819v410h205v-410h-205z" />
<glyph unicode="E" d="M0 0v410h205v-205h819v-205h-1024zM205 410v614h205v-205h614v-205h-614v-204h-205zM410 1024v410h1024v-205h-820v-205h-204z" />
<glyph unicode="F" d="M0 0v410h205v-410h-205zM205 410v614h205v-205h614v-205h-614v-204h-205zM410 1024v410h1024v-205h-820v-205h-204z" />
<glyph unicode="G" d="M0 205v409h205v-409h-205zM205 0v205h614v-205h-614zM205 614v410h205v-410h-205zM410 1024v205h204v-205h-204zM614 410v204h615v-204h-205v-205h-205v205h-205zM614 1229v205h615v-205h-615zM1229 1024v205h205v-205h-205z" />
<glyph unicode="H" d="M0 0v410h205v-410h-205zM205 410v614h205v-205h614v205h205v-614h-205v204h-614v-204h-205zM410 1024v410h204v-410h-204zM819 0v410h205v-410h-205zM1229 1024v410h205v-410h-205z" />
<glyph unicode="I" d="M205 0v205h205v409h204v-409h205v-205h-614zM614 614v410h205v-410h-205zM614 1229v205h615v-205h-205v-205h-205v205h-205z" />
<glyph unicode="J" d="M0 205v205h205v-205h-205zM205 0v205h409v-205h-409zM614 205v409h205v-409h-205zM819 614v410h205v-410h-205zM819 1229v205h615v-205h-205v-205h-205v205h-205z" />
<glyph unicode="K" d="M0 0v410h205v-410h-205zM205 410v614h205v-205h409v-614h-205v409h-204v-204h-205zM410 1024v410h204v-410h-204zM819 0v205h205v-205h-205zM819 819v205h205v-205h-205zM1024 1024v205h205v-205h-205zM1229 1229v205h205v-205h-205z" />
<glyph unicode="L" d="M0 0v410h205v-205h819v-205h-1024zM205 410v614h205v-614h-205zM410 1024v410h204v-410h-204z" />
<glyph unicode="M" d="M0 0v410h205v-410h-205zM205 410v614h205v-614h-205zM410 1024v410h204v-205h205v-205h-409zM819 0v410h205v-410h-205zM819 819v205h205v205h205v205h205v-410h-205v-614h-205v409h-205z" />
<glyph unicode="N" d="M0 0v410h205v-410h-205zM205 410v614h205v410h204v-615h-204v-409h-205zM614 614v205h205v-205h-205zM819 0v614h205v410h205v-614h-205v-410h-205zM1229 1024v410h205v-410h-205z" />
<glyph unicode="O" d="M0 205v409h205v-409h-205zM205 0v205h614v-205h-614zM205 614v410h205v-410h-205zM410 1024v205h204v-205h-204zM614 1229v205h615v-205h-615zM819 205v205h205v-205h-205zM1024 410v409h205v-409h-205zM1229 819v410h205v-410h-205z" />
<glyph unicode="P" d="M0 0v410h205v-410h-205zM205 410v614h205v-205h614v-205h-614v-204h-205zM410 1024v410h819v-205h-615v-205h-204zM1024 819v205h205v-205h-205zM1229 1024v205h205v-205h-205z" />
<glyph unicode="Q" d="M0 205v409h205v-409h-205zM205 0v205h614v-205h-614zM205 614v410h205v-410h-205zM410 1024v205h204v-205h-204zM614 410v204h205v-204h-205zM614 1229v205h615v-205h-615zM819 205v205h205v-205h-205zM1024 0v205h205v-205h-205zM1024 410v409h205v-409h-205zM1229 819 v410h205v-410h-205z" />
<glyph unicode="R" d="M0 0v410h205v-410h-205zM205 410v614h205v-205h614v-205h-614v-204h-205zM410 1024v410h819v-205h-615v-205h-204zM819 0v410h205v-410h-205zM1024 410v204h205v-204h-205zM1024 819v205h205v-205h-205zM1229 1024v205h205v-205h-205z" />
<glyph unicode="S" d="M0 205v205h205v-205h-205zM205 0v205h614v-205h-614zM205 819v205h205v-205h-205zM410 614v205h614v-205h-614zM410 1024v205h204v-205h-204zM614 1229v205h615v-205h-615zM819 205v205h205v-205h-205zM1024 410v204h205v-204h-205zM1229 1024v205h205v-205h-205z" />
<glyph unicode="T" d="M205 0v410h205v-410h-205zM205 1229v205h1024v-205h-410v-205h-205v205h-409zM410 410v614h204v-614h-204z" />
<glyph unicode="U" d="M0 205v409h205v-409h-205zM205 0v205h614v-205h-614zM205 614v410h205v-410h-205zM410 1024v410h204v-410h-204zM819 205v409h205v-409h-205zM1024 614v410h205v-410h-205zM1229 1024v410h205v-410h-205z" />
<glyph unicode="V" d="M205 410v1024h205v-1024h-205zM410 0v410h204v-410h-204zM614 410v204h205v-204h-205zM819 614v205h205v-205h-205zM1024 819v613h205v-613h-205z" />
<glyph unicode="W" d="M0 205v409h205v-409h-205zM205 0v205h205v-205h-205zM205 614v410h205v-410h-205zM410 205v409h204v-409h-204zM410 1024v410h204v-410h-204zM614 0v205h205v-205h-205zM614 614v205h205v-205h-205zM819 205v409h205v-409h-205zM1024 614v410h205v-410h-205zM1229 1024 v410h205v-410h-205z" />
<glyph unicode="X" d="M0 0v205h205v-205h-205zM205 205v205h205v-205h-205zM410 410v204h204v-204h-204zM410 819v615h204v-615h-204zM614 614v205h205v-205h-205zM819 0v614h205v-614h-205zM819 819v205h205v-205h-205zM1024 1024v205h205v-205h-205zM1229 1229v205h205v-205h-205z" />
<glyph unicode="Y" d="M410 0v410h204v-410h-204zM410 819v615h204v-615h-204zM614 410v409h205v-409h-205zM819 819v205h205v-205h-205zM1024 1024v205h205v-205h-205zM1229 1229v205h205v-205h-205z" />
<glyph unicode="Z" d="M0 0v205h205v205h205v-205h614v-205h-1024zM410 410v204h204v-204h-204zM410 1229v205h1024v-205h-205v-205h-205v205h-614zM614 614v205h205v-205h-205zM819 819v205h205v-205h-205z" />
<glyph unicode="[" d="M410 -205v615h204v-410h205v-205h-409zM614 410v614h205v-614h-205zM819 1024v614h410v-204h-205v-410h-205z" />
<glyph unicode="\" d="M410 1024v614h204v-614h-204zM614 410v614h205v-614h-205zM819 -205v615h205v-615h-205z" />
<glyph unicode="]" d="M205 0h205v410h204v-615h-409v205zM614 410v614h205v-614h-205zM614 1434v204h410v-614h-205v410h-205z" />
<glyph unicode="^" d="M205 819v205h205v-205h-205zM410 1024v205h204v-205h-204zM614 1229v205h205v-205h-205zM819 1024v205h205v-205h-205zM1024 819v205h205v-205h-205z" />
<glyph unicode="_" d="M205 0v205h1024v-205h-1024z" />
<glyph unicode="`" d="M410 1229v205h204v-205h-204zM614 1024v205h205v-205h-205z" />
<glyph unicode="a" d="M205 205v409h205v-409h-205zM410 0v205h409v-205h-409zM410 614v205h204v-205h-204zM614 819v205h410v-205h-410zM819 205v205h205v-205h-205zM1024 0v205h205v-205h-205zM1024 410v409h205v-409h-205zM1229 819v205h205v-205h-205z" />
<glyph unicode="b" d="M205 205v409h205v-409h-205zM410 0v205h409v-205h-409zM410 614v615h204v-205h410v-205h-410v-205h-204zM614 1229v205h205v-205h-205zM819 205v205h205v-205h-205zM1024 410v409h205v-409h-205z" />
<glyph unicode="c" d="M205 205v409h205v-409h-205zM410 0v205h409v-205h-409zM410 614v205h204v-205h-204zM614 819v205h410v-205h-410zM819 205v205h205v-205h-205zM1024 614v205h205v-205h-205z" />
<glyph unicode="d" d="M205 205v409h205v-409h-205zM410 0v205h409v-205h-409zM410 614v205h204v-205h-204zM614 819v205h410v-205h-410zM819 205v205h205v-205h-205zM1024 0v205h205v-205h-205zM1024 410v409h205v-409h-205zM1229 819v615h205v-615h-205z" />
<glyph unicode="e" d="M205 205v409h205v205h204v-205h410v-204h-614v-205h-205zM410 0v205h409v-205h-409zM614 819v205h410v-205h-410zM1024 614v205h205v-205h-205z" />
<glyph unicode="f" d="M0 -205h410v-205h-410v205zM410 -205v410h204v-410h-204zM410 614v205h409v410h205v-410h205v-205h-410v-409h-205v409h-204zM1024 1229v205h410v-205h-410z" />
<glyph unicode="g" d="M0 0h205v-205h-205v205zM205 -205h409v-205h-409v205zM205 205v409h205v-409h-205zM410 0v205h409v205h205v-410h-205v-205h-205v205h-204zM410 614v205h204v-205h-204zM614 819v205h410v-205h-410zM1024 410v409h205v-409h-205zM1229 819v205h205v-205h-205z" />
<glyph unicode="h" d="M205 0v410h205v-410h-205zM410 410v819h204v-410h205v-205h-205v-204h-204zM614 1229v205h205v-205h-205zM819 0v410h205v-410h-205zM819 819v205h205v-205h-205zM1024 410v409h205v-409h-205z" />
<glyph unicode="i" d="M410 0v410h204v-205h205v-205h-409zM614 410v204h205v-204h-205zM614 819v205h410v-410h-205v205h-205zM819 205v205h205v-205h-205zM1024 1229v205h205v-205h-205z" />
<glyph unicode="j" d="M0 -205h410v-205h-410v205zM410 -205v410h204v-410h-204zM614 205v409h205v-409h-205zM614 819v205h410v-410h-205v205h-205zM1024 1229v205h205v-205h-205z" />
<glyph unicode="k" d="M205 0v410h205v-410h-205zM410 410v819h204v-410h205v-205h-205v-204h-204zM614 205v205h205v-205h-205zM614 1229v205h205v-205h-205zM819 0v205h205v-205h-205zM819 410v204h205v-204h-205zM819 819v205h205v-205h-205zM1024 614v205h205v-205h-205z" />
<glyph unicode="l" d="M410 0v614h204v-409h205v-205h-409zM614 614v410h205v-410h-205zM614 1229v205h410v-410h-205v205h-205zM819 205v205h205v-205h-205z" />
<glyph unicode="m" d="M205 0v410h205v-410h-205zM205 819v205h205v-205h-205zM410 410v409h204v-409h-204zM614 0v410h205v-410h-205zM614 819v205h205v-205h-205zM819 410v409h205v-409h-205zM1024 0v410h205v-410h-205zM1024 819v205h205v-205h-205zM1229 410v409h205v-409h-205z" />
<glyph unicode="n" d="M205 0v410h205v-410h-205zM410 410v614h204v-205h205v-205h-205v-204h-204zM819 0v410h205v-410h-205zM819 819v205h205v-205h-205zM1024 410v409h205v-409h-205z" />
<glyph unicode="o" d="M205 205v409h205v-409h-205zM410 0v205h409v-205h-409zM410 614v205h204v-205h-204zM614 819v205h410v-205h-410zM819 205v205h205v-205h-205zM1024 410v409h205v-409h-205z" />
<glyph unicode="p" d="M205 205h205v-615h-205v615zM410 205v409h204v-409h-204zM410 819v205h204v-205h-204zM614 0v205h410v-205h-410zM614 614v205h205v-205h-205zM819 819v205h410v-205h-410zM1024 205v205h205v-205h-205zM1229 410v409h205v-409h-205z" />
<glyph unicode="q" d="M205 205v409h205v-409h-205zM410 0v205h409v205h205v-615h-205v205h-409zM410 614v205h204v-205h-204zM614 -205h205v-205h-205v205zM614 819v205h410v-205h-410zM1024 410v409h205v-409h-205zM1229 819v205h205v-205h-205z" />
<glyph unicode="r" d="M205 0v410h205v-410h-205zM410 410v614h204v-205h205v-205h-205v-204h-204zM819 819v205h205v-205h-205zM1024 614v205h205v-205h-205z" />
<glyph unicode="s" d="M205 205v205h205v-205h-205zM410 0v205h409v-205h-409zM410 614v205h204v-205h-204zM614 410v204h205v-204h-205zM614 819v205h410v-205h-410zM819 205v205h205v-205h-205zM1024 614v205h205v-205h-205z" />
<glyph unicode="t" d="M410 0v614h204v-409h205v-205h-409zM410 819v205h204v205h205v-205h410v-205h-410v-205h-205v205h-204zM819 205v205h205v-205h-205zM819 1229v205h205v-205h-205z" />
<glyph unicode="u" d="M205 205v409h205v-409h-205zM410 0v205h204v-205h-204zM410 614v410h204v-410h-204zM614 205v205h205v204h205v-614h-205v205h-205zM1024 614v410h205v-410h-205z" />
<glyph unicode="v" d="M205 0v614h205v-409h204v-205h-409zM205 819v205h409v-410h-204v205h-205zM614 205v205h205v-205h-205zM819 410v204h205v-204h-205zM1024 614v410h205v-410h-205z" />
<glyph unicode="w" d="M205 205v409h205v-409h-205zM205 819v205h409v-410h-204v205h-205zM410 0v205h204v-205h-204zM614 205v409h205v-409h-205zM819 0v205h205v-205h-205zM819 614v205h205v-205h-205zM1024 205v409h205v-409h-205zM1229 614v410h205v-410h-205z" />
<glyph unicode="x" d="M205 0v205h205v-205h-205zM205 614v205h205v-205h-205zM410 205v205h204v409h410v-205h-205v-409h-409zM410 819v205h204v-205h-204zM819 0v205h205v-205h-205zM1024 205v205h205v-205h-205zM1024 819v205h205v-205h-205z" />
<glyph unicode="y" d="M0 0h205v-205h-205v205zM205 -205h409v-205h-409v205zM205 205v409h205v-409h-205zM410 0v205h204v-205h-204zM410 614v410h204v-410h-204zM614 0h205v-205h-205v205zM614 205v205h205v204h205v-614h-205v205h-205zM1024 614v410h205v-410h-205z" />
<glyph unicode="z" d="M205 0v205h205v-205h-205zM205 614v205h205v-205h-205zM410 205v205h204v-205h-204zM410 819v205h409v-205h-409zM614 0v205h410v-205h-410zM614 410v204h205v-204h-205zM819 614v205h205v-205h-205zM1024 205v205h205v-205h-205zM1024 819v205h205v-205h-205z" />
<glyph unicode="{" d="M410 0v410h204v-410h-204zM410 614v205h204v205h205v-614h-205v204h-204zM614 0h205v-205h-205v205zM819 1024v410h205v-410h-205zM1024 1434v204h205v-204h-205z" />
<glyph unicode="|" d="M614 -410v2048h205v-2048h-205z" />
<glyph unicode="}" d="M205 0h205v-205h-205v205zM410 0v410h204v-410h-204zM614 410v614h205v-205h205v-205h-205v-204h-205zM614 1434v204h205v-204h-205zM819 1024v410h205v-410h-205z" />
<glyph unicode="~" d="M205 410v204h205v-204h-205zM410 614v205h409v-205h-409zM819 410v204h410v-204h-410zM1229 614v205h205v-205h-205z" />
<glyph unicode="&#xa0;" />
<glyph unicode="&#xa1;" d="M410 0v410h204v-410h-204zM614 410v614h205v-614h-205zM819 1229v205h205v-205h-205z" />
<glyph unicode="&#xa2;" d="M205 0h205v-205h-205v205zM205 205v409h205v-204h204v-205h205v-205h-409v205h-205zM410 614v205h204v-205h-204zM614 410v204h205v-204h-205zM614 819v205h410v-205h205v-205h-410v205h-205zM819 205v205h205v-205h-205zM1024 1024v205h205v-205h-205z" />
<glyph unicode="&#xa3;" d="M0 0v205h205v-205h-205zM205 205v205h205v-205h-205zM205 614v205h205v205h204v-205h205v-205h-205v-204h-204v204h-205zM410 0v205h614v-205h-614zM614 1024v205h205v-205h-205zM819 1229v205h205v-205h-205zM1024 1024v205h205v-205h-205z" />
<glyph unicode="&#xa4;" d="M0 205v205h205v-205h-205zM205 410v204h205v-204h-205zM205 819v205h205v-205h-205zM410 205v205h409v-205h-409zM410 614v205h204v-205h-204zM614 819v205h410v-205h-410zM819 410v204h205v-204h-205zM1024 205v205h205v-205h-205zM1024 614v205h205v-205h-205z M1229 819v205h205v-205h-205z" />
<glyph unicode="&#xa5;" d="M205 410v204h409v205h205v-205h205v-204h-410v-410h-204v410h-205zM410 819v615h204v-615h-204zM819 819v205h205v-205h-205zM1024 1024v205h205v-205h-205zM1229 1229v205h205v-205h-205z" />
<glyph unicode="&#xa6;" d="M614 -410v820h205v-820h-205zM614 819v819h205v-819h-205z" />
<glyph unicode="&#xa7;" d="M0 0h205v-205h-205v205zM205 -205h409v-205h-409v205zM205 410v409h205v-409h-205zM410 205v205h204v-205h-204zM410 819v205h204v205h205v-410h-409zM614 -205v410h410v-205h-205v-205h-205zM819 614v205h205v-205h-205zM819 1229v205h410v-205h-410zM1024 205v409h205 v-409h-205zM1229 1024v205h205v-205h-205z" />
<glyph unicode="&#xa8;" d="M410 1229v205h204v-205h-204zM819 1229v205h205v-205h-205z" />
<glyph unicode="&#xab;" d="M205 410v204h205v-204h-205zM410 205v205h204v-205h-204zM410 614v205h204v-205h-204zM819 410v204h205v-204h-205zM1024 205v205h205v-205h-205zM1024 614v205h205v-205h-205z" />
<glyph unicode="&#xad;" d="M410 614v205h614v-205h-614z" />
<glyph unicode="&#xb0;" d="M410 1024v205h204v-205h-204zM614 819v205h205v-205h-205zM614 1229v205h205v-205h-205zM819 1024v205h205v-205h-205z" />
<glyph unicode="&#xb1;" d="M410 0v205h614v-205h-614zM410 614v205h204v205h205v-205h205v-205h-205v-204h-205v204h-204z" />
<glyph unicode="&#xb4;" d="M410 1024v205h204v-205h-204zM614 1229v205h205v-205h-205z" />
<glyph unicode="&#xb5;" d="M0 0h205v-410h-205v410zM205 0v614h205v-409h204v-205h-409zM410 614v410h204v-410h-204zM614 205v205h205v204h205v-614h-205v205h-205zM1024 614v410h205v-410h-205z" />
<glyph unicode="&#xb6;" d="M205 -205v615h205v-615h-205zM205 819v410h205v205h1024v-205h-205v-410h-205v410h-205v-412h-205v-407h-204v409h-205zM614 -205v615h205v-615h-205zM819 410v407h205v-407h-205z" />
<glyph unicode="&#xb7;" d="M410 614v205h204v205h205v-205h205v-205h-205v-204h-205v204h-204z" />
<glyph unicode="&#xb8;" d="M410 -205h409v-205h-409v205zM819 0h205v-205h-205v205z" />
<glyph unicode="&#xba;" d="M205 819v205h205v-205h-205zM410 614v205h409v-205h-409zM410 1024v205h204v-205h-204zM614 1229v205h410v-205h-410zM819 819v205h205v-205h-205zM1024 1024v205h205v-205h-205z" />
<glyph unicode="&#xbb;" d="M205 205v205h205v-205h-205zM205 614v205h205v-205h-205zM410 410v204h204v-204h-204zM819 205v205h205v-205h-205zM819 614v205h205v-205h-205zM1024 410v204h205v-204h-205z" />
<glyph unicode="&#xbc;" d="M0 1229v205h410v-615h-205v410h-205zM205 0v205h205v-205h-205zM410 205v409h204v-409h-204zM614 614v205h205v-205h-205zM819 819v410h205v-410h-205zM1024 205v409h205v-204h205v-410h-205v205h-205zM1024 1229v205h205v-205h-205z" />
<glyph unicode="&#xbd;" d="M0 1229v205h410v-615h-205v410h-205zM205 0v205h205v-205h-205zM410 205v409h204v-409h-204zM614 614v205h205v-205h-205zM819 410v204h410v-409h205v-205h-410v410h-205zM819 819v410h205v-410h-205zM1024 1229v205h205v-205h-205z" />
<glyph unicode="&#xbe;" d="M0 819v205h205v205h-205v205h410v-615h-410zM205 0v205h205v-205h-205zM410 205v409h204v-409h-204zM614 614v205h205v-205h-205zM819 819v410h205v-410h-205zM1024 205v409h205v-204h205v-410h-205v205h-205zM1024 1229v205h205v-205h-205z" />
<glyph unicode="&#xbf;" d="M205 205v409h205v-409h-205zM410 0v205h614v-205h-614zM410 614v205h409v-205h-409zM819 819v205h205v-205h-205zM1024 205v205h205v-205h-205zM1024 1229v205h205v-205h-205z" />
<glyph unicode="&#xc0;" d="M0 0v410h205v409h205v-409h614v-410h-205v205h-614v-205h-205zM410 819v205h614v-205h-614zM614 1434v204h205v-204h-205zM819 1229v205h205v-205h-205zM1024 410v409h205v-409h-205z" />
<glyph unicode="&#xc1;" d="M0 0v410h205v409h205v-409h614v-410h-205v205h-614v-205h-205zM410 819v205h614v-205h-614zM819 1229v205h205v-205h-205zM1024 410v409h205v-409h-205zM1024 1434v204h205v-204h-205z" />
<glyph unicode="&#xc2;" d="M0 0v410h205v409h205v-409h614v-410h-205v205h-614v-205h-205zM410 819v205h614v-205h-614zM610 1229v205h205v-205h-205zM815 1434v204h205v-204h-205zM1020 1229v205h205v-205h-205zM1024 410v409h205v-409h-205z" />
<glyph unicode="&#xc3;" d="M0 0v410h205v409h205v-409h614v-410h-205v205h-614v-205h-205zM410 819v205h614v-205h-614zM614 1229v205h205v-205h-205zM819 1434v204h205v-204h-205zM1024 410v409h205v-409h-205zM1024 1229v205h205v-205h-205zM1229 1434v204h205v-204h-205z" />
<glyph unicode="&#xc4;" d="M0 0v410h205v409h205v-409h614v-410h-205v205h-614v-205h-205zM410 819v205h614v-205h-614zM614 1229v205h205v-205h-205zM1024 410v409h205v-409h-205zM1024 1229v205h205v-205h-205z" />
<glyph unicode="&#xc5;" d="M0 0v410h205v409h205v-409h614v-410h-205v205h-614v-205h-205zM410 819v205h409v205h205v-410h-614zM614 1229v205h205v-205h-205zM819 1434v204h205v-204h-205zM1024 410v409h205v-409h-205zM1024 1229v205h205v-205h-205z" />
<glyph unicode="&#xc6;" d="M0 0v410h205v-410h-205zM205 410v409h205v-205h409v-409h410v-205h-615v410h-409zM410 819v410h204v-410h-204zM614 1229v205h820v-205h-410v-410h205v-205h-410v615h-205z" />
<glyph unicode="&#xc7;" d="M0 -205h205v-205h-205v205zM0 205v409h205v-409h-205zM205 205h614v-205h-409v-205h-205v410zM205 614v410h205v-410h-205zM410 1024v205h204v-205h-204zM614 1229v205h615v-205h-615zM819 205v205h205v-205h-205zM1229 1024v205h205v-205h-205z" />
<glyph unicode="&#xc8;" d="M0 0v410h205v-205h819v-205h-1024zM205 410v614h1024v-205h-819v-205h409v-204h-614zM614 1434v204h205v-204h-205zM819 1229v205h205v-205h-205z" />
<glyph unicode="&#xc9;" d="M0 0v410h205v-205h819v-205h-1024zM205 410v614h1024v-205h-819v-205h409v-204h-614zM614 1229v205h205v-205h-205zM819 1434v204h205v-204h-205z" />
<glyph unicode="&#xca;" d="M0 0v410h205v-205h819v-205h-1024zM205 410v614h1024v-205h-819v-205h409v-204h-614zM406 1229v205h204v-205h-204zM610 1434v204h205v-204h-205zM815 1229v205h205v-205h-205z" />
<glyph unicode="&#xcb;" d="M0 0v410h205v-205h819v-205h-1024zM205 410v614h1024v-205h-819v-205h409v-204h-614zM410 1229v205h204v-205h-204zM819 1229v205h205v-205h-205z" />
<glyph unicode="&#xcc;" d="M205 0v205h205v409h204v-409h205v-205h-614zM410 819v205h614v-205h-205v-205h-205v205h-204zM614 1434v204h205v-204h-205zM819 1229v205h205v-205h-205z" />
<glyph unicode="&#xcd;" d="M205 0v205h205v409h204v-409h205v-205h-614zM410 819v205h614v-205h-205v-205h-205v205h-204zM614 1229v205h205v-205h-205zM819 1434v204h205v-204h-205z" />
<glyph unicode="&#xce;" d="M205 0v205h205v409h204v-409h205v-205h-614zM410 819v205h614v-205h-205v-205h-205v205h-204zM610 1229v205h205v-205h-205zM815 1434v204h205v-204h-205zM1020 1229v205h205v-205h-205z" />
<glyph unicode="&#xcf;" d="M205 0v205h205v409h204v-409h205v-205h-614zM410 819v205h614v-205h-205v-205h-205v205h-204zM614 1229v205h205v-205h-205zM1024 1229v205h205v-205h-205z" />
<glyph unicode="&#xd1;" d="M0 0v205h205v-205h-205zM205 205v614h205v205h204v-410h-204v-409h-205zM614 410v204h205v-204h-205zM614 1229v205h205v-205h-205zM819 0v410h205v409h205v-614h-205v-205h-205zM819 1434v204h205v-204h-205zM1024 1229v205h205v-205h-205zM1229 819v205h205v-205h-205z M1229 1434v204h205v-204h-205z" />
<glyph unicode="&#xd2;" d="M0 205v409h205v-409h-205zM205 0v205h614v-205h-614zM205 614v205h205v-205h-205zM410 819v205h614v-205h-614zM614 1434v204h205v-204h-205zM819 205v205h205v-205h-205zM819 1229v205h205v-205h-205zM1024 410v409h205v-409h-205z" />
<glyph unicode="&#xd3;" d="M0 205v409h205v-409h-205zM205 0v205h614v-205h-614zM205 614v205h205v-205h-205zM410 819v205h614v-205h-614zM819 205v205h205v-205h-205zM819 1229v205h205v-205h-205zM1024 410v409h205v-409h-205zM1024 1434v204h205v-204h-205z" />
<glyph unicode="&#xd4;" d="M0 205v409h205v-409h-205zM205 0v205h614v-205h-614zM205 614v205h205v-205h-205zM410 819v205h614v-205h-614zM610 1229v205h205v-205h-205zM815 1434v204h205v-204h-205zM819 205v205h205v-205h-205zM1020 1229v205h205v-205h-205zM1024 410v409h205v-409h-205z" />
<glyph unicode="&#xd5;" d="M0 205v409h205v-409h-205zM205 0v205h614v-205h-614zM205 614v205h205v-205h-205zM410 819v205h614v-205h-614zM614 1229v205h205v-205h-205zM819 205v205h205v-205h-205zM819 1434v204h205v-204h-205zM1024 410v409h205v-409h-205zM1024 1229v205h205v-205h-205z M1229 1434v204h205v-204h-205z" />
<glyph unicode="&#xd6;" d="M0 205v409h205v-409h-205zM205 0v205h614v-205h-614zM205 614v205h205v-205h-205zM410 819v205h614v-205h-614zM614 1229v205h205v-205h-205zM819 205v205h205v-205h-205zM1024 410v409h205v-409h-205zM1024 1229v205h205v-205h-205z" />
<glyph unicode="&#xd7;" d="M205 0v205h205v-205h-205zM205 819v205h205v-205h-205zM410 205v205h204v-205h-204zM410 614v205h204v-205h-204zM614 410v204h205v-204h-205zM819 205v205h205v-205h-205zM819 614v205h205v-205h-205zM1024 0v205h205v-205h-205zM1024 819v205h205v-205h-205z" />
<glyph unicode="&#xd8;" d="M0 0h205v-205h-205v205zM0 205v614h205v-614h-205zM205 0v205h205v405h204v-405h205v-205h-614zM205 819v205h205v-205h-205zM410 1024v205h614v-205h-205v-414h-205v414h-204zM819 205v205h205v-205h-205zM1024 410v614h205v-614h-205zM1026 1229v205h203v-205h-203z " />
<glyph unicode="&#xd9;" d="M0 205v614h205v-614h-205zM205 0v205h614v-205h-614zM205 819v410h205v-410h-205zM410 1434v204h204v-204h-204zM614 1229v205h205v-205h-205zM819 205v614h205v-614h-205zM1024 819v410h205v-410h-205z" />
<glyph unicode="&#xda;" d="M0 205v614h205v-614h-205zM205 0v205h614v-205h-614zM205 819v410h205v-410h-205zM614 1434v204h205v-204h-205zM819 205v614h205v-614h-205zM819 1638v205h205v-205h-205zM1024 819v410h205v-410h-205z" />
<glyph unicode="&#xdb;" d="M0 205v409h205v-409h-205zM205 0v205h614v-205h-614zM205 614v410h205v-410h-205zM406 1229v205h204v-205h-204zM610 1434v204h205v-204h-205zM815 1229v205h205v-205h-205zM819 205v409h205v-409h-205zM1024 614v410h205v-410h-205z" />
<glyph unicode="&#xdc;" d="M0 205v614h205v-614h-205zM205 0v205h614v-205h-614zM205 819v410h205v-410h-205zM410 1434v204h204v-204h-204zM819 205v614h205v-614h-205zM819 1434v204h205v-204h-205zM1024 819v410h205v-410h-205z" />
<glyph unicode="&#xdd;" d="M410 0v410h204v-410h-204zM410 819v410h204v-410h-204zM614 410v409h205v-409h-205zM819 819v205h205v-205h-205zM819 1229v205h205v-205h-205zM1024 1024v205h205v-205h-205zM1024 1434v204h205v-204h-205z" />
<glyph unicode="&#xdf;" d="M0 0v205h410v-205h-410zM410 205v409h204v-409h-204zM614 614v410h205v-410h-205zM819 0v205h410v-205h-410zM819 1024v205h205v-205h-205zM1024 614v410h205v-410h-205zM1024 1229v205h205v-205h-205zM1229 205v409h205v-409h-205zM1229 1024v205h205v-205h-205z" />
<glyph unicode="&#xe0;" d="M102 205v409h205v-409h-205zM307 0v205h410v-205h-410zM307 614v205h205v-205h-205zM512 819v205h410v-205h-410zM614 1434v204h205v-204h-205zM717 205v205h205v-205h-205zM819 1229v205h205v-205h-205zM922 0v205h204v-205h-204zM922 410v409h204v-409h-204zM1126 819 v205h205v-205h-205z" />
<glyph unicode="&#xe1;" d="M102 205v409h205v-409h-205zM307 0v205h410v-205h-410zM307 614v205h205v-205h-205zM512 819v205h410v-205h-410zM614 1229v205h205v-205h-205zM717 205v205h205v-205h-205zM819 1434v204h205v-204h-205zM922 0v205h204v-205h-204zM922 410v409h204v-409h-204zM1126 819 v205h205v-205h-205z" />
<glyph unicode="&#xe2;" d="M102 205v409h205v-409h-205zM307 0v205h410v-205h-410zM307 614v205h205v-205h-205zM410 1229v205h204v-205h-204zM512 819v205h410v-205h-410zM614 1434v204h205v-204h-205zM717 205v205h205v-205h-205zM819 1229v205h205v-205h-205zM922 0v205h204v-205h-204zM922 410 v409h204v-409h-204zM1126 819v205h205v-205h-205z" />
<glyph unicode="&#xe3;" d="M102 205v409h205v-409h-205zM307 0v205h410v-205h-410zM307 614v205h205v-205h-205zM410 1229v205h204v-205h-204zM512 819v205h410v-205h-410zM614 1434v204h205v-204h-205zM717 205v205h205v-205h-205zM819 1229v205h205v-205h-205zM922 0v205h204v-205h-204zM922 410 v409h204v-409h-204zM1024 1434v204h205v-204h-205zM1126 819v205h205v-205h-205z" />
<glyph unicode="&#xe4;" d="M102 205v409h205v-409h-205zM307 0v205h410v-205h-410zM307 614v205h205v-205h-205zM512 819v205h410v-205h-410zM614 1229v205h205v-205h-205zM717 205v205h205v-205h-205zM922 0v205h204v-205h-204zM922 410v409h204v-409h-204zM1024 1229v205h205v-205h-205zM1126 819 v205h205v-205h-205z" />
<glyph unicode="&#xe5;" d="M205 205v409h205v-409h-205zM410 0v205h409v-205h-409zM410 614v205h204v-205h-204zM614 819v205h410v-205h-410zM819 205v205h205v-205h-205zM819 1229v205h205v-205h-205zM1024 0v205h205v-205h-205zM1024 410v409h205v-409h-205zM1024 1024v205h205v-205h-205z M1024 1434v204h205v-204h-205zM1229 819v205h205v-205h-205zM1229 1229v205h205v-205h-205z" />
<glyph unicode="&#xe6;" d="M0 205v205h205v-205h-205zM205 0v205h205v-205h-205zM205 410v204h409v205h205v-205h205v-204h-410v-205h-204v205h-205zM205 819v205h409v-205h-409zM614 0v205h410v-205h-410zM819 819v205h205v-205h-205zM1024 614v205h205v-205h-205z" />
<glyph unicode="&#xe7;" d="M205 -205h205v-205h-205v205zM205 205v409h205v-409h-205zM410 205h409v-205h-205v-205h-204v410zM410 614v205h204v-205h-204zM614 819v205h410v-205h-410zM819 205v205h205v-205h-205zM1024 614v205h205v-205h-205z" />
<glyph unicode="&#xe8;" horiz-adv-x="1638" d="M205 205v409h205v205h204v-205h410v-204h-614v-205h-205zM410 0v205h409v-205h-409zM614 819v205h410v-205h-410zM614 1434v204h205v-204h-205zM819 1229v205h205v-205h-205zM1024 614v205h205v-205h-205z" />
<glyph unicode="&#xe9;" horiz-adv-x="1638" d="M205 205v409h205v205h204v-205h410v-204h-614v-205h-205zM410 0v205h409v-205h-409zM614 819v205h410v-205h-410zM819 1229v205h205v-205h-205zM1024 614v205h205v-205h-205zM1024 1434v204h205v-204h-205z" />
<glyph unicode="&#xea;" horiz-adv-x="1638" d="M205 205v409h205v205h204v-205h410v-204h-614v-205h-205zM410 0v205h409v-205h-409zM614 819v205h410v-205h-410zM614 1229v205h205v-205h-205zM819 1434v204h205v-204h-205zM1024 614v205h205v-205h-205zM1024 1229v205h205v-205h-205z" />
<glyph unicode="&#xeb;" horiz-adv-x="1638" d="M205 205v409h205v205h204v-205h410v-204h-614v-205h-205zM410 0v205h409v-205h-409zM614 819v205h410v-205h-410zM614 1229v205h205v-205h-205zM1024 614v205h205v-205h-205zM1024 1229v205h205v-205h-205z" />
<glyph unicode="&#xec;" horiz-adv-x="1638" d="M410 0v410h204v-205h205v-205h-409zM614 410v204h205v-204h-205zM614 819v205h410v-410h-205v205h-205zM819 205v205h205v-205h-205zM819 1434v204h205v-204h-205zM1024 1229v205h205v-205h-205z" />
<glyph unicode="&#xed;" horiz-adv-x="1638" d="M410 0v410h204v-205h205v-205h-409zM614 410v204h205v-204h-205zM614 819v205h410v-410h-205v205h-205zM819 205v205h205v-205h-205zM1024 1229v205h205v-205h-205zM1229 1434v204h205v-204h-205z" />
<glyph unicode="&#xee;" horiz-adv-x="1638" d="M410 0v410h204v-205h205v-205h-409zM614 410v204h205v-204h-205zM614 819v205h410v-410h-205v205h-205zM614 1229v205h205v-205h-205zM819 205v205h205v-205h-205zM819 1434v204h205v-204h-205zM1024 1229v205h205v-205h-205z" />
<glyph unicode="&#xef;" horiz-adv-x="1638" d="M410 0v410h204v-205h205v-205h-409zM614 410v204h205v-204h-205zM614 819v205h410v-410h-205v205h-205zM614 1229v205h205v-205h-205zM819 205v205h205v-205h-205zM1024 1229v205h205v-205h-205z" />
<glyph unicode="&#xf1;" d="M205 0v410h205v-410h-205zM410 410v614h204v-205h205v-205h-205v-204h-204zM614 1229v205h205v-205h-205zM819 0v410h205v-410h-205zM819 819v205h205v-205h-205zM819 1434v204h205v-204h-205zM1024 410v409h205v-409h-205zM1024 1229v205h205v-205h-205zM1229 1434v204 h205v-204h-205z" />
<glyph unicode="&#xf2;" horiz-adv-x="1638" d="M205 205v409h205v-409h-205zM410 0v205h409v-205h-409zM410 614v205h204v-205h-204zM614 819v205h410v-205h-410zM614 1434v204h205v-204h-205zM819 205v205h205v-205h-205zM819 1229v205h205v-205h-205zM1024 410v409h205v-409h-205z" />
<glyph unicode="&#xf3;" horiz-adv-x="1638" d="M205 205v409h205v-409h-205zM410 0v205h409v-205h-409zM410 614v205h204v-205h-204zM614 819v205h410v-205h-410zM819 205v205h205v-205h-205zM819 1229v205h205v-205h-205zM1024 410v409h205v-409h-205zM1024 1434v204h205v-204h-205z" />
<glyph unicode="&#xf4;" horiz-adv-x="1638" d="M205 205v409h205v-409h-205zM410 0v205h409v-205h-409zM410 614v205h204v-205h-204zM614 819v205h410v-205h-410zM614 1229v205h205v-205h-205zM819 205v205h205v-205h-205zM819 1434v204h205v-204h-205zM1024 410v409h205v-409h-205zM1024 1229v205h205v-205h-205z" />
<glyph unicode="&#xf5;" horiz-adv-x="1638" d="M205 205v409h205v-409h-205zM410 0v205h409v-205h-409zM410 614v205h204v-205h-204zM614 819v205h410v-205h-410zM614 1229v205h205v-205h-205zM819 205v205h205v-205h-205zM819 1434v204h205v-204h-205zM1024 410v409h205v-409h-205zM1024 1229v205h205v-205h-205z M1229 1434v204h205v-204h-205z" />
<glyph unicode="&#xf6;" horiz-adv-x="1638" d="M205 205v409h205v-409h-205zM410 0v205h409v-205h-409zM410 614v205h204v-205h-204zM614 819v205h410v-205h-410zM614 1229v205h205v-205h-205zM819 205v205h205v-205h-205zM1024 410v409h205v-409h-205zM1024 1229v205h205v-205h-205z" />
<glyph unicode="&#xf7;" d="M205 410v204h1024v-204h-1024zM614 0v205h205v-205h-205zM614 819v205h205v-205h-205z" />
<glyph unicode="&#xf8;" d="M205 0h205v-205h-205v205zM205 205v409h205v-204h204v-205h205v-205h-409v205h-205zM410 614v205h204v-205h-204zM614 410v204h205v-204h-205zM614 819v205h410v-205h205v-409h-205v204h-205v205h-205zM819 205v205h205v-205h-205zM1024 1024v205h205v-205h-205z" />
<glyph unicode="&#xf9;" d="M205 205v409h205v-409h-205zM410 0v205h204v-205h-204zM410 614v410h204v-410h-204zM614 205v205h205v204h205v-614h-205v205h-205zM614 1434v204h205v-204h-205zM819 1229v205h205v-205h-205zM1024 614v410h205v-410h-205z" />
<glyph unicode="&#xfa;" d="M205 205v409h205v-409h-205zM410 0v205h204v-205h-204zM410 614v410h204v-410h-204zM614 205v205h205v204h205v-614h-205v205h-205zM819 1229v205h205v-205h-205zM1024 614v410h205v-410h-205zM1024 1434v204h205v-204h-205z" />
<glyph unicode="&#xfb;" d="M205 205v409h205v-409h-205zM410 0v205h204v-205h-204zM410 614v410h204v-410h-204zM614 205v205h205v204h205v-614h-205v205h-205zM614 1229v205h205v-205h-205zM819 1434v204h205v-204h-205zM1024 614v410h205v-410h-205zM1024 1229v205h205v-205h-205z" />
<glyph unicode="&#xfc;" d="M205 205v409h205v-409h-205zM410 0v205h204v-205h-204zM410 614v410h204v-410h-204zM614 205v205h205v204h205v-614h-205v205h-205zM614 1229v205h205v-205h-205zM1024 614v410h205v-410h-205zM1024 1229v205h205v-205h-205z" />
<glyph unicode="&#xfd;" d="M0 0h205v-205h-205v205zM205 -205h409v-205h-409v205zM205 205v409h205v-409h-205zM410 0v205h204v-205h-204zM410 614v410h204v-410h-204zM614 0h205v-205h-205v205zM614 205v205h205v204h205v-614h-205v205h-205zM819 1229v205h205v-205h-205zM1024 614v410h205v-410 h-205zM1024 1434v204h205v-204h-205z" />
<glyph unicode="&#xff;" d="M0 0h205v-205h-205v205zM205 -205h409v-205h-409v205zM205 205v409h205v-409h-205zM410 0v205h204v-205h-204zM410 614v410h204v-410h-204zM614 0h205v-205h-205v205zM614 205v205h205v204h205v-614h-205v205h-205zM614 1229v205h205v-205h-205zM1024 614v410h205v-410 h-205zM1024 1229v205h205v-205h-205z" />
<glyph unicode="&#x152;" d="M0 205v614h205v-614h-205zM205 0v205h205v409h204v-409h410v-205h-819zM205 819v410h205v-410h-205zM410 1229v205h819v-205h-410v-410h205v-205h-410v615h-204z" />
<glyph unicode="&#x153;" d="M0 205v409h205v-409h-205zM205 0v205h205v-205h-205zM205 614v205h205v-205h-205zM410 205v205h204v-205h-204zM410 819v205h204v-205h-204zM614 0v205h410v-205h-410zM614 410v409h205v-205h205v-204h-410zM819 819v205h205v-205h-205zM1024 614v205h205v-205h-205z" />
<glyph unicode="&#x178;" d="M410 0v410h204v-410h-204zM410 819v410h204v-410h-204zM614 410v409h205v-409h-205zM614 1434v204h205v-204h-205zM819 819v205h205v-205h-205zM1024 1024v205h205v-205h-205zM1024 1434v204h205v-204h-205z" />
<glyph unicode="&#x2c6;" d="M410 1024v205h204v-205h-204zM614 1229v205h205v-205h-205zM819 1024v205h205v-205h-205z" />
<glyph unicode="&#x2dc;" d="M410 1229v205h204v-205h-204zM614 1434v204h205v-204h-205zM819 1229v205h205v-205h-205zM1024 1434v204h205v-204h-205z" />
<glyph unicode="&#x2000;" horiz-adv-x="921" />
<glyph unicode="&#x2001;" horiz-adv-x="1843" />
<glyph unicode="&#x2002;" horiz-adv-x="921" />
<glyph unicode="&#x2003;" horiz-adv-x="1843" />
<glyph unicode="&#x2004;" horiz-adv-x="614" />
<glyph unicode="&#x2005;" horiz-adv-x="460" />
<glyph unicode="&#x2006;" horiz-adv-x="307" />
<glyph unicode="&#x2007;" horiz-adv-x="307" />
<glyph unicode="&#x2008;" horiz-adv-x="230" />
<glyph unicode="&#x2009;" horiz-adv-x="368" />
<glyph unicode="&#x200a;" horiz-adv-x="102" />
<glyph unicode="&#x2010;" d="M410 614v205h614v-205h-614z" />
<glyph unicode="&#x2011;" d="M410 614v205h614v-205h-614z" />
<glyph unicode="&#x2012;" d="M410 614v205h614v-205h-614z" />
<glyph unicode="&#x2013;" d="M205 614v205h1024v-205h-1024z" />
<glyph unicode="&#x2014;" d="M0 614v205h1434v-205h-1434z" />
<glyph unicode="&#x2018;" d="M614 1024v410h205v-205h205v-205h-410zM819 1434v204h205v-204h-205z" />
<glyph unicode="&#x2019;" d="M614 1024v205h205v-205h-205zM614 1434v204h410v-409h-205v205h-205z" />
<glyph unicode="&#x201a;" d="M410 0h204v-205h-204v205zM614 0v205h205v-205h-205z" />
<glyph unicode="&#x201c;" d="M205 1024v410h205v-205h204v-205h-409zM410 1434v204h204v-204h-204zM819 1024v410h205v-205h205v-205h-410zM1024 1434v204h205v-204h-205z" />
<glyph unicode="&#x201d;" d="M205 1024v205h205v-205h-205zM205 1434v204h409v-409h-204v205h-205zM819 1024v205h205v-205h-205zM819 1434v204h410v-409h-205v205h-205z" />
<glyph unicode="&#x201e;" d="M205 0h205v-205h-205v205zM410 0v205h204v-205h-204zM819 0h205v-205h-205v205zM1024 0v205h205v-205h-205z" />
<glyph unicode="&#x2022;" d="M614 410v409h410v-409h-410z" />
<glyph unicode="&#x2026;" d="M205 0v205h205v-205h-205zM614 0v205h205v-205h-205zM1024 0v205h205v-205h-205z" />
<glyph unicode="&#x202f;" horiz-adv-x="368" />
<glyph unicode="&#x2039;" d="M410 410v204h204v-204h-204zM614 205v205h205v-205h-205zM614 614v205h205v-205h-205z" />
<glyph unicode="&#x203a;" d="M614 205v205h205v-205h-205zM614 614v205h205v-205h-205zM819 410v204h205v-204h-205z" />
<glyph unicode="&#x205f;" horiz-adv-x="460" />
<glyph unicode="&#x20ac;" d="M0 410v204h410v205h-205v205h409v205h205v-205h205v-205h-410v-205h205v-204h-409v-205h-205v205h-205zM410 0v205h409v-205h-409zM819 205v205h205v-205h-205zM819 1229v205h410v-205h-410zM1229 1024v205h205v-205h-205z" />
<glyph unicode="&#x2122;" d="M0 1434v204h614v-204h-204v-410h-205v410h-205zM819 1024v614h615v-614h-205v410h-205v-410h-205z" />
<glyph unicode="&#x25fc;" horiz-adv-x="1024" d="M0 0v1024h1024v-1024h-1024z" />
</font>
</defs>
</svg>
