<?xml version="1.0" standalone="no"?>
<!DOCTYPE svg PUBLIC "-//W3C//DTD SVG 1.1//EN" "http://www.w3.org/Graphics/SVG/1.1/DTD/svg11.dtd" >
<svg xmlns="http://www.w3.org/2000/svg" xmlns:xlink="http://www.w3.org/1999/xlink" version="1.1">
<metadata></metadata>
<defs>
<font id="ft88bold" horiz-adv-x="1433" >
<font-face units-per-em="2048" ascent="1638" descent="-410" />
<missing-glyph horiz-adv-x="500" />
<glyph horiz-adv-x="0" />
<glyph unicode="&#xd;" horiz-adv-x="512" />
<glyph unicode=" " />
<glyph unicode="!" d="M410 0v205h409v-205h-409zM410 410v1024h409v-1024h-409z" />
<glyph unicode="&#x22;" d="M0 819v205h205v410h409v-410h-204v-205h-410zM614 819v205h205v410h410v-410q-76 19 -102 19t-103 -19v-205h-410z" />
<glyph unicode="#" d="M0 205v205h205v409h-205v205h205v205h409v-205h205v205h410v-205h205v-205h-205v-409h205v-205h-205v-205h-410v205h-205v-205h-409v205h-205zM614 410h205v409h-205v-409z" />
<glyph unicode="$" d="M0 0v205h410v-205h204v410h-409v204h-205v410h205v205h409v205h205v-205h410v-205h205v-205h-410v205h-205v-410h410v-204h205v-410h-205v-205h-410v-205h-205v205h-409v205h-205zM410 614h204v410h-204v-410zM819 0h205v410h-205v-410z" />
<glyph unicode="%" d="M205 0h205v410h204v409h205v410h205v205h410v-205h-205v-410h-205v-409h-205v-410h-205v-205h-409v205zM205 1024v410h409v-410h-409zM1024 -205v410h410v-410h-410z" />
<glyph unicode="&#x26;" d="M205 205v409h205v205h-205v410h205v205h614v-205h205v-410h-205v-205h410v-204h-205v-205h205v-205h-1024v205h-205zM614 205h205v409h-205v-409zM614 819h205v410h-205v-410z" />
<glyph unicode="'" d="M410 819v205h204v410h410v-410h-205v-205h-409z" />
<glyph unicode="(" d="M410 205v1024h204v205h410v-205h-205v-1024h205v-205h-410v205h-204z" />
<glyph unicode=")" d="M410 0v205h204v1024h-204v205h409v-205h205v-1024h-205v-205h-409z" />
<glyph unicode="*" d="M205 614v410h205v410h204v-205h205v205h205v-410h205v-410h-205v-409h-205v205h-205v-205h-204v409h-205z" />
<glyph unicode="+" d="M205 410v204h409v410h410v-410h410v-204h-410v-410h-410v410h-409z" />
<glyph unicode="," d="M410 0h204v410h410v-410h-205v-205h-409v205z" />
<glyph unicode="-" d="M410 205l2 389h614l-2 -389h-614z" />
<glyph unicode="." d="M410 0v410q10 0 91 0.5t167 0.5t151 -1v-410h-409z" />
<glyph unicode="/" d="M205 -205v410h205v409h204v410h205v410h410v-410h-205v-410h-205v-409h-205v-410h-409z" />
<glyph unicode="0" d="M205 205v1024h205v205h614v-205h205v-1024h-205v-205h-614v205h-205zM614 205h205v1024h-205v-1024z" />
<glyph unicode="1" d="M410 1024v205h204v205h410v-1434h-410v1024h-204z" />
<glyph unicode="2" d="M205 0v410h205v204h204v205h205v410h-205v-205h-409v205h205v205h614v-205h205v-410h-205v-205h-205v-204h-205v-205h410v205h205v-410h-1024z" />
<glyph unicode="3" d="M205 205v205h409v-205h205v409h410v-409h-205v-205h-614v205h-205zM205 1024v410h1024v-410h-205v-205h-205v-205h-409v205h204v205h205v205h-409v-205h-205z" />
<glyph unicode="4" d="M205 410v409h205v-205h409v410h-205v205h205v205h410v-1434h-410v410h-614zM410 819v205h204v-205h-204z" />
<glyph unicode="5" d="M205 205v205h409v-205h205v614h-205v-205h-409v820h1024v-205h-615v-205h410v-205h205v-614h-205v-205h-614v205h-205z" />
<glyph unicode="6" d="M205 205v1024h205v205h614v-205h205v-205h-410v205h-205v-410h410v-205h205v-409h-205v-205h-614v205h-205zM614 205h205v409h-205v-409z" />
<glyph unicode="7" d="M205 1024v410h1024v-410h-205v-205h-205v-819h-409v819h204v205h205v205h-409v-205h-205z" />
<glyph unicode="8" d="M205 205v409h205v205h-205v410h205v205h614v-205h205v-410h-205v-205h205v-409h-205v-205h-614v205h-205zM614 205h205v409h-205v-409zM614 819h205v410h-205v-410z" />
<glyph unicode="9" d="M205 205v205h409v-205h205v409h-409v205h-205v410h205v205h614v-205h205v-1024h-205v-205h-614v205h-205zM614 819h205v410h-205v-410z" />
<glyph unicode=":" d="M410 0v410h409v-410h-409zM410 614v410h409v-410h-409z" />
<glyph unicode=";" d="M410 -205h204v410h410v-410h-205v-205h-409v205zM614 614v410h410v-410h-410z" />
<glyph unicode="&#x3c;" d="M205 410v204h205v205h204v205h205v205h410v-205h-205v-205h-205v-205h-205v-204h205v-205h205v-205h205v-205h-410v205h-205v205h-204v205h-205z" />
<glyph unicode="=" d="M205 205v205h1024v-205h-1024zM205 614v205h1024v-205h-1024z" />
<glyph unicode="&#x3e;" d="M205 0h205v205h204v205h205v204h-205v205h-204v205h-205v205h409v-205h205v-205h205v-205h205v-204h-205v-205h-205v-205h-205v-205h-409v205z" />
<glyph unicode="?" d="M205 1024v205h205v205h614v-205h205v-410h-205v-205h-205v-204h-409v204h204v205h205v410h-205v-205h-409zM410 0v205h409v-205h-409z" />
<glyph unicode="@" d="M0 205v819h205v205h205v205h819v-205h205v-819h-205v-205h205v-205h-410v-205h-614v205h-205v205h-205zM410 205h204v-205h205v205h205v205h-205v409h-205v205h410v-205h205v205h-205v205h-410v-205h-204v-205h204v-409h-204v-205zM614 205v205h205v-205h-205z" />
<glyph unicode="A" d="M205 0v1229h205v205h614v-205h205v-1229h-410v410h-205v-410h-409zM614 614h205v615h-205v-615z" />
<glyph unicode="B" d="M205 0v1434h819v-205h205v-410h-205v-205h205v-409h-205v-205h-819zM614 205h205v409h-205v-409zM614 819h205v410h-205v-410z" />
<glyph unicode="C" d="M205 205v1024h205v205h614v-205h205v-205h-410v205h-205v-1024h205v205h410v-205h-205v-205h-614v205h-205z" />
<glyph unicode="D" d="M205 0v1434h819v-205h205v-1024h-205v-205h-819zM614 205h205v1024h-205v-1024z" />
<glyph unicode="E" d="M205 0v1434h1024v-205h-615v-410h410v-205h-410v-409h615v-205h-1024z" />
<glyph unicode="F" d="M205 0v1434h1024v-205h-615v-410h410v-205h-410v-614h-409z" />
<glyph unicode="G" d="M102 205v1024h205v205h615v-205h204v-205h-409v205h-205v-1024h205v-205h-410v205h-205zM717 205v409h409v-614h-204v205h-205z" />
<glyph unicode="H" d="M205 0v1434h409v-615h205v615h410v-1434h-410v614h-205v-614h-409z" />
<glyph unicode="I" d="M205 0v205h205v1024h-205v205h819v-205h-205v-1024h205v-205h-819z" />
<glyph unicode="J" d="M0 205v205h410v-205h204v1024h-204v205h819v-205h-205v-1024h-205v-205h-614v205h-205z" />
<glyph unicode="K" d="M205 0v1434h409v-615h205v615h410v-615h-205v-205h205v-614h-410v614h-205v-614h-409z" />
<glyph unicode="L" d="M205 0v1434h409v-1229h615v-205h-1024z" />
<glyph unicode="M" d="M205 0v1434h205v-205h204v-205h205v205h205v205h205v-1434h-410v614h-205v-614h-409z" />
<glyph unicode="N" d="M205 0v1434h205v-205h204v-205h205v410h410v-1434h-205v205h-205v205h-205v-410h-409z" />
<glyph unicode="O" d="M205 205v1024h205v205h614v-205h205v-1024h-205v-205h-614v205h-205zM614 205h205v1024h-205v-1024z" />
<glyph unicode="P" d="M205 0v1434h819v-205h205v-615h-205v-204h-410v-410h-409zM614 614h205v615h-205v-615z" />
<glyph unicode="Q" d="M205 205v1024h205v205h614v-205h205v-1024h-205v-205h205v-205h-410v205h-409v205h-205zM614 205h205v1024h-205v-1024z" />
<glyph unicode="R" d="M205 0v1434h819v-205h205v-615h-205v-204h205v-410h-410v410h-205v-410h-409zM614 614h205v615h-205v-615z" />
<glyph unicode="S" d="M205 205v205h409v-205h205v409h-409v205h-205v410h205v205h614v-205h205v-205h-410v205h-205v-410h410v-205h205v-409h-205v-205h-614v205h-205z" />
<glyph unicode="T" d="M205 1229v205h819v-205h-205v-1229h-409v1229h-205z" />
<glyph unicode="U" d="M205 205v1229h409v-1229h205v1229h410v-1229h-205v-205h-614v205h-205z" />
<glyph unicode="V" d="M205 819v615h409v-820h205v820h410v-615h-205v-614h-205v-205h-205v205h-204v614h-205z" />
<glyph unicode="W" d="M205 205v1229h205v-820h204v820h205v-820h205v820h205v-1229h-205v-205h-205v205h-205v-205h-204v205h-205z" />
<glyph unicode="X" d="M205 0v614h205v205h-205v615h409v-615h205v615h410v-615h-205v-205h205v-614h-410v614h-205v-614h-409z" />
<glyph unicode="Y" d="M205 1024v410h409v-410h205v-205h205v-819h-410v819h-204v205h-205zM1024 819v205h205v-205h-205zM1229 1024v410h205v-410h-205z" />
<glyph unicode="Z" d="M205 0v614h205v205h204v205h205v205h-614v205h1024v-615h-205v-205h-205v-204h-205v-205h615v-205h-1024z" />
<glyph unicode="[" d="M410 0v1434h614v-205h-205v-1024h205v-205h-614z" />
<glyph unicode="\" d="M205 1024v410h409v-410h205v-410h205v-409h205v-410h-410v410h-205v409h-204v410h-205z" />
<glyph unicode="]" d="M410 0v205h204v1024h-204v205h614v-1434h-614z" />
<glyph unicode="^" d="M205 614v410h205v205h204v205h205v-205h205v-205h205v-410h-205v205h-205v205h-205v-205h-204v-205h-205z" />
<glyph unicode="_" d="M205 -205v410h1024v-410h-1024z" />
<glyph unicode="a" d="M205 205v614h205v205h819v-1024h-205v205h-205v614h-205v-614h205v-205h-409v205h-205z" />
<glyph unicode="b" d="M205 0v1434h409v-410h410v-205h205v-614h-205v-205h-819zM614 205h205v614h-205v-614z" />
<glyph unicode="c" d="M205 205v614h205v205h614v-205h205v-205h-410v205h-205v-614h205v205h410v-205h-205v-205h-614v205h-205z" />
<glyph unicode="d" d="M205 205v614h205v205h409v410h410v-1434h-819v205h-205zM614 205h205v614h-205v-614z" />
<glyph unicode="e" d="M205 205v614h205v205h614v-205h205v-409h-615v-205h410v-205h-614v205h-205zM614 614h205v205h-205v-205z" />
<glyph unicode="f" d="M205 614v205h205v410h204v205h615v-205h205v-205h-410v205h-205v-410h205v-205h-205v-614h-409v614h-205z" />
<glyph unicode="g" d="M205 0h409v-205h205v410h-409v205h-205v409h205v205h819v-1229h-205v-205h-614v205h-205v205zM614 410h205v409h-205v-409z" />
<glyph unicode="h" d="M205 0v1434h409v-410h410v-205h205v-819h-410v819h-205v-819h-409z" />
<glyph unicode="i" d="M410 0v205h204v614h-204v205h614v-819h205v-205h-819zM614 1229v205h410v-205h-410z" />
<glyph unicode="j" d="M205 0h205v-205h-205v205zM410 -205h204v1024h-204v205h614v-1229h-205v-205h-409v205zM614 1229v205h410v-205h-410z" />
<glyph unicode="k" d="M205 0v1434h409v-820h205v-204h-205v-410h-409zM819 0v410h205v-205h205v-205h-410zM819 614v410h410v-205h-205v-205h-205z" />
<glyph unicode="l" d="M410 0v1434h409v-1229h205v-205h-614z" />
<glyph unicode="m" d="M205 0v1024h409v-205h205v205h205v-205h205v-819h-205v614h-205v-614h-205v614h-204v-614h-205z" />
<glyph unicode="n" d="M205 0v1024h205v-205h204v-819h-409zM614 819v205h410v-205h205v-819h-410v819h-205z" />
<glyph unicode="o" d="M205 205v614h205v205h614v-205h205v-614h-205v-205h-614v205h-205zM614 205h205v614h-205v-614z" />
<glyph unicode="p" d="M205 -410v1434h819v-205h205v-614h-205v-205h-410v-410h-409zM614 205h205v614h-205v-614z" />
<glyph unicode="q" d="M205 205v614h205v205h819v-1434h-410v410h-409v205h-205zM614 205h205v614h-205v-614z" />
<glyph unicode="r" d="M205 0v1024h205v-205h204v-819h-409zM614 819v205h410v-205h205v-205h-410v205h-205z" />
<glyph unicode="s" d="M0 0v205h614v205h-409v204h-205v205h205v205h819v-205h-410v-205h410v-204h205v-205h-205v-205h-1024z" />
<glyph unicode="t" d="M205 205v1229h409v-410h410v-205h-410v-614h410v-205h-614v205h-205z" />
<glyph unicode="u" d="M205 205v819h409v-819h205v-205h-409v205h-205zM819 205v819h410v-1024h-205v205h-205z" />
<glyph unicode="v" d="M205 614v410h409v-614h205v614h410v-410h-205v-409h-205v-205h-205v205h-204v409h-205z" />
<glyph unicode="w" d="M205 205v819h205v-614h204v614h205v-614h205v614h205v-819h-205v-205h-205v205h-205v-205h-204v205h-205z" />
<glyph unicode="x" d="M205 0v205h205v205h204v204h-204v205h-205v205h409v-205h205v205h410v-205h-205v-205h-205v-204h205v-205h205v-205h-410v205h-205v-205h-409z" />
<glyph unicode="y" d="M205 0h409v-205h205v410h-409v205h-205v614h409v-614h205v614h410v-1229h-205v-205h-614v205h-205v205z" />
<glyph unicode="z" horiz-adv-x="1228" d="M205 0v410h205v204h204v205h-409v205h819v-410h-205v-204h-205v-205h410v-205h-819z" />
<glyph unicode="{" d="M205 614v205h205v410h204v205h615v-205h-410v-410h-205v-205h205v-409h410v-205h-615v205h-204v409h-205z" />
<glyph unicode="|" d="M410 -205v1639h409v-1639h-409z" />
<glyph unicode="}" d="M205 0v205h409v409h410v-409h-205v-205h-614zM205 1229v205h614v-205h205v-410h-410v410h-409zM819 614h410v205h-410v-205z" />
<glyph unicode="~" d="M205 205v409h205v205h204v-205h205v205h205v-409h-205v-205h-205v205h-204v-205h-205z" />
<glyph unicode="&#xa0;" />
<glyph unicode="&#xa1;" d="M410 0v1024h409v-1024h-409zM410 1229v205h409v-205h-409z" />
<glyph unicode="&#xa2;" d="M0 410v614h205v205h409v205h205v-205h410v-205h205v-205h-410v205h-205v-614h205v204h410v-204h-205v-205h-410v-205h-205v205h-409v205h-205zM410 410h204v614h-204v-614z" />
<glyph unicode="&#xa3;" d="M0 0v205h205v409h-205v205h205v410h205v205h614v-205h205v-205h-410v205h-205v-410h205v-205h-205v-409h205v205h410v-205h-205v-205h-1024z" />
<glyph unicode="&#xa4;" d="M0 0v205h410v-205h-410zM0 1024v205h410v-205h-410zM205 410v409h205v205h614v-205h205v-409h-205v-205h-614v205h-205zM614 410h205v409h-205v-409zM1024 0v205h410v-205h-410zM1024 1024v205h410v-205h-410z" />
<glyph unicode="&#xa5;" d="M0 205v205h410v204h-410v205h410v205h-205v205h-205v205h410v-205h409v205h410v-205h-205v-205h-205v-205h410v-205h-410v-204h410v-205h-410v-205h-409v205h-410z" />
<glyph unicode="&#xa7;" d="M205 410v409h205v205h-205v205h205v205h614v-205h-410v-205h410v-205h205v-409h-205v-205h205v-205h-205v-205h-614v205h409v205h-409v205h-205zM614 410h205v409h-205v-409z" />
<glyph unicode="&#xab;" d="M0 410v204h205v205h205v205h409v-205h-205v-205h-204v-204h204v-205h205v-205h-409v205h-205v205h-205zM614 410v204h205v205h205v205h410v-205h-205v-205h-205v-204h205v-205h205v-205h-410v205h-205v205h-205z" />
<glyph unicode="&#xad;" d="M410 205l2 389h614l-2 -389h-614z" />
<glyph unicode="&#xb0;" d="M205 819v410h205v205h614v-205h205v-410h-205v-205h-614v205h-205zM614 819h205v410h-205v-410z" />
<glyph unicode="&#xb6;" d="M0 819v410h205v205h1024v-1639h-205v1434h-205v-1434h-409v819h-205v205h-205z" />
<glyph unicode="&#xb7;" d="M410 410v409h409v-409h-409z" />
<glyph unicode="&#xbb;" d="M0 0v205h205v205h205v204h-205v205h-205v205h410v-205h204v-205h205v-204h-205v-205h-204v-205h-410zM614 0v205h205v205h205v204h-205v205h-205v205h410v-205h205v-205h205v-204h-205v-205h-205v-205h-410z" />
<glyph unicode="&#xbf;" d="M205 205v409h205v205h204v205h410v-205h-205v-205h-205v-409h205v205h410v-205h-205v-205h-614v205h-205zM614 1229v205h410v-205h-410z" />
<glyph unicode="&#xc0;" d="M205 0v819h205v205h614v-205h205v-819h-410v410h-205v-410h-409zM410 1434v204h409v-204h205v-205h-410v205h-204zM614 614h205v205h-205v-205z" />
<glyph unicode="&#xc1;" d="M205 0v819h205v205h614v-205h205v-819h-410v410h-205v-410h-409zM410 1229v205h204v204h410v-204h-205v-205h-409zM614 614h205v205h-205v-205z" />
<glyph unicode="&#xc2;" d="M205 0v819h205v205h614v-205h205v-819h-410v410h-205v-410h-409zM205 1229v205h205v204h614v-204h205v-205h-410v205h-205v-205h-409zM614 614h205v205h-205v-205z" />
<glyph unicode="&#xc4;" d="M205 0v819h205v205h614v-205h205v-819h-410v410h-205v-410h-409zM205 1229v205h409v-205h-204h-205zM614 614h205v205h-205v-205zM819 1229v205h410v-205h-410z" />
<glyph unicode="&#xc5;" d="M205 0v819h205v205h614v-205h205v-819h-410v410h-205v-410h-409zM410 1229v409h614v-409h-205v205h-205v-205h-204zM614 614h205v205h-205v-205z" />
<glyph unicode="&#xc6;" d="M0 0v1229h205v205h1229v-205h-410v-410h205v-205h-205v-409h410v-205h-820v410h-204v-410h-410zM410 614h204v615h-204v-615z" />
<glyph unicode="&#xc7;" d="M205 205v1024h205v205h614v-205h205v-205h-410v205h-205v-1024h205v205h410v-205h-205v-205h-205v-205h-102v-205h-410v205h307v205h-204v205h-205z" />
<glyph unicode="&#xc8;" d="M205 0v1024h1024v-205h-615v-205h410v-204h-410v-205h615v-205h-1024zM410 1434v204h409v-204h205v-205h-410v205h-204z" />
<glyph unicode="&#xc9;" d="M205 0v1024h1024v-205h-615v-205h410v-204h-410v-205h615v-205h-1024zM410 1229v205h204v204h410v-204h-205v-205h-409z" />
<glyph unicode="&#xca;" d="M205 0v1024h1024v-205h-615v-205h410v-204h-410v-205h615v-205h-1024zM205 1229v205h205v204h614v-204h205v-205h-410v205h-205v-205h-409z" />
<glyph unicode="&#xcb;" d="M205 0v1024h1024v-205h-615v-205h410v-204h-410v-205h615v-205h-1024zM205 1229v205h409v-205h-204h-205zM819 1229v205h410v-205h-410z" />
<glyph unicode="&#xcc;" d="M205 0v205h205v614h-205v205h819v-205h-205v-614h205v-205h-819zM205 1434v204h409v-204h205v-205h-409v205h-205z" />
<glyph unicode="&#xcd;" d="M205 0v205h205v614h-205v205h819v-205h-205v-614h205v-205h-819zM410 1229v205h204v204h410v-204h-205v-205h-409z" />
<glyph unicode="&#xce;" d="M0 1229v205h205v204h614v-204h205v-205h-410v205h-204v-205h-410zM205 0v205h205v614h-205v205h819v-205h-205v-614h205v-205h-819z" />
<glyph unicode="&#xcf;" d="M205 1229v205h409v-205h-204h-205zM410 0v205h204v614h-204v205h819v-205h-205v-614h205v-205h-819zM819 1229v205h410v-205h-410z" />
<glyph unicode="&#xd1;" d="M205 0v1024h205v-205h204v-205h205v410h410v-1024h-205v205h-205v205h-205v-410h-409zM205 1229v205h205v204h409v-204h-205v-205h-409zM819 1229v205h205v204h410v-204h-205v-205h-410z" />
<glyph unicode="&#xd2;" d="M205 205v614h205v205h614v-205h205v-614h-205v-205h-614v205h-205zM410 1434v204h409v-204h205v-205h-410v205h-204zM614 205h205v614h-205v-614z" />
<glyph unicode="&#xd3;" d="M205 205v614h205v205h614v-205h205v-614h-205v-205h-614v205h-205zM410 1229v205h204v204h410v-204h-205v-205h-409zM614 205h205v614h-205v-614z" />
<glyph unicode="&#xd4;" d="M205 205v614h205v205h614v-205h205v-614h-205v-205h-614v205h-205zM205 1229v205h205v204h614v-204h205v-205h-410v205h-205v-205h-409zM614 205h205v614h-205v-614z" />
<glyph unicode="&#xd6;" d="M205 205v614h205v205h614v-205h205v-614h-205v-205h-614v205h-205zM205 1229v205h409v-205h-204h-205zM614 205h205v614h-205v-614zM819 1229v205h410v-205h-410z" />
<glyph unicode="&#xd7;" d="M0 0v205h205v205h205v204h-205v205h-205v205h410v-205h409v205h410v-205h-205v-205h-205v-204h205v-205h205v-205h-410v205h-409v-205h-410z" />
<glyph unicode="&#xd8;" d="M205 205v1024h205v205h614v-205h205v-1024h-205v-205h-614v205h-205zM614 205h205v409h-205v-409zM614 819h205v410h-205v-410z" />
<glyph unicode="&#xd9;" d="M205 205v819h409v-819h205v819h410v-819h-205v-205h-614v205h-205zM410 1434v204h409v-204h205v-205h-410v205h-204z" />
<glyph unicode="&#xda;" d="M205 205v819h409v-819h205v819h410v-819h-205v-205h-614v205h-205zM410 1229v205h204v204h410v-204h-205v-205h-409z" />
<glyph unicode="&#xdb;" d="M205 205v819h409v-819h205v819h410v-819h-205v-205h-614v205h-205zM205 1229v205h205v204h614v-204h205v-205h-410v205h-205v-205h-409z" />
<glyph unicode="&#xdc;" d="M205 205v819h409v-819h205v819h410v-819h-205v-205h-614v205h-205zM205 1434v204h409v-204h-204h-205zM819 1434v204h410v-204h-410z" />
<glyph unicode="&#xdf;" d="M205 -205v1434h205v205h614v-205h205v-410h205v-614h-205v-205h-615v-205h-409zM614 205h410v409h-410v-409zM614 819h205v410h-205v-410z" />
<glyph unicode="&#xe0;" d="M205 205v614h205v205h204v205h-204v205h409v-205h205v-205h205v-1024h-205v205h-205v614h-205v-614h205v-205h-409v205h-205z" />
<glyph unicode="&#xe1;" d="M205 205v614h205v410h204v205h410v-205h-205v-205h410v-1024h-205v205h-205v614h-205v-614h205v-205h-409v205h-205z" />
<glyph unicode="&#xe2;" d="M205 205v614h205v205h-205v205h205v205h614v-205h205v-1229h-205v205h-205v614h-205v-614h205v-205h-409v205h-205zM614 1024h205v205h-205v-205z" />
<glyph unicode="&#xe3;" d="M205 205v614h205v205h-205v205h205v205h409v-205h-205v-205h205v205h205v205h410v-205h-205v-1229h-205v205h-205v614h-205v-614h205v-205h-409v205h-205z" />
<glyph unicode="&#xe4;" d="M205 205v614h205v205h819v-1024h-205v205h-205v614h-205v-614h205v-205h-409v205h-205zM205 1229v205h409v-205h-204h-205zM819 1229v205h410v-205h-410z" />
<glyph unicode="&#xe5;" d="M205 205v614h205v615h614v-410h205v-1024h-205v205h-205v614h-205v-614h205v-205h-409v205h-205zM614 1024h205v205h-205v-205z" />
<glyph unicode="&#xe6;" d="M0 205v614h205v205h409v-205h-204v-614h204v-205h-409v205h-205zM614 205v614h205v-205h205v205h-205v205h410v-205h205v-409h-615v-205h-205zM819 0v205h410v-205h-410z" />
<glyph unicode="&#xe7;" d="M205 205v614h205v205h614v-205h205v-205h-410v205h-205v-614h205v205h410v-205h-205v-205h-205v-205h-102v-205h-410v205h307v205h-204v205h-205z" />
<glyph unicode="&#xe8;" d="M205 205v614h205v205h204v205h-204v205h409v-205h205v-410h205v-409h-615v-205h410v-205h-614v205h-205zM614 614h205v205h-205v-205z" />
<glyph unicode="&#xe9;" d="M205 205v614h205v410h204v205h410v-205h-205v-205h205v-205h205v-409h-615v-205h410v-205h-614v205h-205zM614 614h205v205h-205v-205z" />
<glyph unicode="&#xea;" d="M205 205v614h205v205h-205v205h205v205h614v-205h205v-205h-205v-205h205v-409h-615v-205h410v-205h-614v205h-205zM614 614h205v205h-205v-205zM614 1024h205v205h-205v-205z" />
<glyph unicode="&#xeb;" d="M205 205v614h205v205h614v-205h205v-409h-615v-205h410v-205h-614v205h-205zM205 1229v205h409v-205h-204h-205zM614 614h205v205h-205v-205zM819 1229v205h410v-205h-410z" />
<glyph unicode="&#xec;" d="M410 0v205h204v819h205v205h-205v205h410v-205h205v-205h-205v-819h205v-205h-819z" />
<glyph unicode="&#xed;" d="M410 0v205h204v819h-204v205h204v205h410v-205h-205v-205h205v-819h205v-205h-819z" />
<glyph unicode="&#xee;" d="M205 1024v205h205v205h614v-205h205v-205h-205v-819h205v-205h-819v205h204v819h205v205h-205v-205h-409z" />
<glyph unicode="&#xef;" d="M205 1229v205h409v-205h-204h-205zM410 0v205h204v819h410v-819h205v-205h-819zM819 1229v205h410v-205h-410z" />
<glyph unicode="&#xf1;" d="M205 0v1229h205v205h409v-205h-205v-205h-204v-205h204v-819h-409zM614 819v205h205v205h205v205h410v-205h-205v-205h-205v-205h205v-819h-410v819h-205z" />
<glyph unicode="&#xf2;" d="M205 205v614h205v205h204v205h-204v205h409v-205h205v-410h205v-614h-205v-205h-614v205h-205zM614 205h205v614h-205v-614z" />
<glyph unicode="&#xf3;" d="M205 205v614h205v410h204v205h410v-205h-205v-205h205v-205h205v-614h-205v-205h-614v205h-205zM614 205h205v614h-205v-614z" />
<glyph unicode="&#xf4;" d="M205 205v614h205v205h-205v205h205v205h614v-205h205v-205h-205v-205h205v-614h-205v-205h-614v205h-205zM614 205h205v614h-205v-614zM614 1024h205v205h-205v-205z" />
<glyph unicode="&#xf5;" d="M205 205v614h205v205h-205v205h205v205h409v-205h205v205h410v-205h-205v-205h-205v-205h205v-614h-205v-205h-614v205h-205zM614 205h205v614h-205v-614zM614 1024h205v205h-205v-205z" />
<glyph unicode="&#xf6;" d="M205 205v614h205v205h614v-205h205v-614h-205v-205h-614v205h-205zM205 1229v205h409v-205h-204h-205zM614 205h205v614h-205v-614zM819 1229v205h410v-205h-410z" />
<glyph unicode="&#xf7;" d="M205 410v204h1024v-204h-1024zM512 0v205h410v-205h-410zM512 819v205h410v-205h-410z" />
<glyph unicode="&#xf8;" d="M205 205v614h205v205h614v-205h205v-614h-205v-205h-614v205h-205zM614 205h205v205h-205v-205zM614 614h205v205h-205v-205z" />
<glyph unicode="&#xf9;" d="M205 205v819h409v-819h205v-205h-409v205h-205zM410 1229v205h409v-205h205v-205h205v-1024h-205v205h-205v819h-205v205h-204z" />
<glyph unicode="&#xfa;" d="M205 205v819h205v205h204v205h410v-205h-205v-205h-205v-819h205v-205h-409v205h-205zM819 205v819h410v-1024h-205v205h-205z" />
<glyph unicode="&#xfb;" d="M0 1024v205h410v205h614v-205h410v-205h-205v-1024h-205v205h-205v1024h-205v-1024h205v-205h-409v205h-205v819h-205z" />
<glyph unicode="&#xfc;" d="M205 205v819h409v-819h205v-205h-409v205h-205zM205 1229v205h409v-205h-204h-205zM819 205v819h410v-1024h-205v205h-205zM819 1229v205h410v-205h-410z" />
<glyph unicode="&#xfd;" d="M205 0h409v-205h205v410h-409v205h-205v614h205v205h204v205h410v-205h-205v-205h410v-1229h-205v-205h-614v205h-205v205zM614 410h205v614h-205v-614z" />
<glyph unicode="&#xff;" d="M205 0h409v-205h205v410h-409v205h-205v614h409v-614h205v614h410v-1229h-205v-205h-614v205h-205v205zM205 1229v205h409v-205h-204h-205zM819 1229v205h410v-205h-410z" />
<glyph unicode="&#x152;" d="M0 205v1024h410v-1024h-410zM410 0v205h204v1024h-204v205h1024v-205h-410v-410h205v-205h-205v-409h410v-205h-1024z" />
<glyph unicode="&#x153;" d="M0 205v614h205v205h1024v-205h205v-409h-615v-205h410v-205h-1024v205h-205zM410 205h204v614h-204v-614zM819 614h205v205h-205v-205z" />
<glyph unicode="&#x2c6;" d="M205 1024v205h205v205h614v-205h205v-205h-410v205h-205v-205h-409z" />
<glyph unicode="&#x2000;" horiz-adv-x="819" />
<glyph unicode="&#x2001;" horiz-adv-x="1638" />
<glyph unicode="&#x2002;" horiz-adv-x="819" />
<glyph unicode="&#x2003;" horiz-adv-x="1638" />
<glyph unicode="&#x2004;" horiz-adv-x="546" />
<glyph unicode="&#x2005;" horiz-adv-x="409" />
<glyph unicode="&#x2006;" horiz-adv-x="273" />
<glyph unicode="&#x2007;" horiz-adv-x="273" />
<glyph unicode="&#x2008;" horiz-adv-x="204" />
<glyph unicode="&#x2009;" horiz-adv-x="327" />
<glyph unicode="&#x200a;" horiz-adv-x="91" />
<glyph unicode="&#x2010;" d="M410 205l2 389h614l-2 -389h-614z" />
<glyph unicode="&#x2011;" d="M410 205l2 389h614l-2 -389h-614z" />
<glyph unicode="&#x2012;" d="M410 205l2 389h614l-2 -389h-614z" />
<glyph unicode="&#x2013;" d="M205 410v409h1024v-409h-1024z" />
<glyph unicode="&#x2014;" d="M0 410v409h1434v-409h-1434z" />
<glyph unicode="&#x2018;" d="M410 1024v410h409v-410h205v-205h-410v205h-204z" />
<glyph unicode="&#x2019;" d="M410 1229v205h409v-205h205v-410h-410v410h-204z" />
<glyph unicode="&#x201a;" horiz-adv-x="1228" d="M205 -205h205v410h409v-410h-205v-205h-409v205z" />
<glyph unicode="&#x201c;" d="M205 1024v410h409v-410h205v-205h-409v205h-205zM819 1024v410h410v-410h205v-205h-410v205h-205z" />
<glyph unicode="&#x201d;" d="M0 1229v205h410v-205h204v-410h-409v410h-205zM614 1229v205h410v-205h205v-410h-410v410h-205z" />
<glyph unicode="&#x201e;" d="M205 -205h205v410h409v-410h-205v-205h-409v205zM819 -205h205v410h410v-410h-205v-205h-410v205z" />
<glyph unicode="&#x2022;" d="M205 410v409h205v205h614v-205h205v-409h-205v-205h-614v205h-205z" />
<glyph unicode="&#x2026;" d="M205 0v410h205v-410h-205zM614 0v410h205v-410h-205zM1024 0v410h205v-410h-205z" />
<glyph unicode="&#x202f;" horiz-adv-x="327" />
<glyph unicode="&#x2039;" d="M205 410v204h205v205h204v205h410v-205h-205v-205h-205v-204h205v-205h205v-205h-410v205h-204v205h-205z" />
<glyph unicode="&#x203a;" d="M410 0v205h204v205h205v204h-205v205h-204v205h409v-205h205v-205h205v-204h-205v-205h-205v-205h-409z" />
<glyph unicode="&#x205f;" horiz-adv-x="409" />
<glyph unicode="&#x20ac;" d="M0 410v204h205v205h-205v205h205v205h205v205h614v-205h205v-205h-410v205h-205v-205h205v-205h-205v-205h205v-204h-205v-205h205v205h410v-205h-205v-205h-614v205h-205v205h-205z" />
<glyph unicode="&#x2122;" d="M0 1229v205h819v-205h205v205h410v-820h-410v410h-205v-410h-614v615h-205z" />
<glyph unicode="&#x25fc;" horiz-adv-x="1024" d="M0 0v1024h1024v-1024h-1024z" />
</font>
</defs>
</svg>
